<svg xmlns="http://www.w3.org/2000/svg" xmlns:xlink="http://www.w3.org/1999/xlink" width="149" height="204" viewBox="0 0 149 204">
  <defs>
    <linearGradient id="splash_web-c" x1="94.685%" x2="2.641%" y1="-39.352%" y2="135.731%">
      <stop offset="0%" stop-color="#F05746"/>
      <stop offset="100%" stop-color="#EC1233"/>
    </linearGradient>
    <path id="splash_web-b" d="M0.648071108,9.53450391 L0.626626088,9.55613211 C0.624834582,9.54728541 0.623033668,9.5383303 0.62122398,9.5292679 C0.59436876,9.52399895 0.568311682,9.51879173 0.543075943,9.51366042 L0.605866974,9.45083561 C0.310312501,7.91175001 -0.163245962,3.72273354 1.75455305,1.31662265 C3.17490551,-0.169886793 5.51430958,0.0849433966 6.22448581,1.61392453 C6.75612015,2.75851209 6.28110228,3.68889152 6.00865681,4.08435262 C6.39763152,3.80736396 7.31275076,3.32442487 8.43856465,3.86492454 C9.94246727,4.58694341 10.1513426,7.00783022 8.68921509,8.40939626 C6.28106461,10.3182465 2.19798941,9.83499066 0.648071108,9.53450391 Z"/>
    <filter id="splash_web-a" width="292.4%" height="289.6%" x="-96.2%" y="-63.2%" filterUnits="objectBoundingBox">
      <feOffset dy="3" in="SourceAlpha" result="shadowOffsetOuter1"/>
      <feGaussianBlur in="shadowOffsetOuter1" result="shadowBlurOuter1" stdDeviation="2.5"/>
      <feColorMatrix in="shadowBlurOuter1" values="0 0 0 0 0.226589073   0 0 0 0 0.226589073   0 0 0 0 0.226589073  0 0 0 0.5 0"/>
    </filter>
    <path id="splash_web-e" d="M0.420353257,4.74112017 C0.716718533,3.80260459 1.67294217,1.17404224 3.5347408,0.336665901 C4.78229637,-0.0841664753 6.07143713,0.799581515 6.02985195,1.89374569 C5.99403549,2.8361266 5.27956364,3.21659381 5.08202874,3.30401654 C5.34286814,3.25622852 6.102383,3.19166926 6.61204455,3.9137411 C7.27740752,4.79748909 6.69521492,6.22831917 5.40607416,6.60706831 C3.40998524,6.98581745 1.12280002,5.38665442 0.374266673,4.75540585 L0.420352469,4.74112042 Z"/>
    <filter id="splash_web-d" width="376.3%" height="379.7%" x="-138.1%" y="-93.2%" filterUnits="objectBoundingBox">
      <feOffset dy="3" in="SourceAlpha" result="shadowOffsetOuter1"/>
      <feGaussianBlur in="shadowOffsetOuter1" result="shadowBlurOuter1" stdDeviation="2.5"/>
      <feColorMatrix in="shadowBlurOuter1" values="0 0 0 0 0.226589073   0 0 0 0 0.226589073   0 0 0 0 0.226589073  0 0 0 0.5 0"/>
    </filter>
    <filter id="splash_web-f" width="122.5%" height="118.7%" x="-12.8%" y="-6.2%" filterUnits="objectBoundingBox">
      <feOffset dy="3" in="SourceAlpha" result="shadowOffsetOuter1"/>
      <feGaussianBlur in="shadowOffsetOuter1" result="shadowBlurOuter1" stdDeviation="2.5"/>
      <feColorMatrix in="shadowBlurOuter1" result="shadowMatrixOuter1" values="0 0 0 0 0.226589073   0 0 0 0 0.226589073   0 0 0 0 0.226589073  0 0 0 0.5 0"/>
      <feMerge>
        <feMergeNode in="shadowMatrixOuter1"/>
        <feMergeNode in="SourceGraphic"/>
      </feMerge>
    </filter>
    <path id="splash_web-h" d="M3.8444441,4.18583683 C3.53846652,3.81779736 2.98563517,2.94322422 3.42936657,1.80926175 C4.0220966,0.294530982 6.35067883,-0.126227564 7.87484176,1.22019978 C9.95752581,3.45557896 9.74529853,7.60512502 9.57662222,9.10099371 L9.61069397,9.13046045 C9.59803817,9.13378978 9.58517292,9.13715489 9.57210113,9.14055372 C9.57084887,9.15136545 9.56960021,9.16202695 9.56835611,9.1725363 L9.54075538,9.14866599 C8.04103723,9.53498728 3.98146397,10.3235188 1.4394872,8.62555019 C-0.127013577,7.3211987 -0.0423378589,4.96495084 1.39714934,4.16550961 C2.47186428,3.53723658 3.42858251,3.9409086 3.8444441,4.18583683 Z"/>
    <filter id="splash_web-g" width="291.8%" height="294.3%" x="-95.9%" y="-64.8%" filterUnits="objectBoundingBox">
      <feOffset dy="3" in="SourceAlpha" result="shadowOffsetOuter1"/>
      <feGaussianBlur in="shadowOffsetOuter1" result="shadowBlurOuter1" stdDeviation="2.5"/>
      <feColorMatrix in="shadowBlurOuter1" values="0 0 0 0 0.226589073   0 0 0 0 0.226589073   0 0 0 0 0.226589073  0 0 0 0.5 0"/>
    </filter>
    <path id="splash_web-j" d="M5.72742087,4.3412337 C5.5060099,3.80172435 5.1304987,2.4603366 6.1813274,1.22019978 C7.53613888,-0.378682691 10.5421269,5.02375919e-15 11.8546005,2.23002029 C13.4670732,5.76372506 11.6475595,10.7018554 10.8122065,12.5380357 L10.8384919,12.5806805 C10.8237622,12.5800299 10.80882,12.5793466 10.7936682,12.5786297 C10.7800993,12.6082284 10.7668086,12.6369694 10.7538162,12.6648322 L10.698489,12.573823 C8.67846382,12.4655212 3.41404575,11.7922817 1.01610861,8.75177776 C-0.423378589,6.56383332 0.635067883,3.70267521 2.70962297,3.28191666 C4.32913716,2.95344891 5.35521206,3.90708301 5.72742087,4.3412337 Z"/>
    <filter id="splash_web-i" width="248.2%" height="244.9%" x="-74.1%" y="-48.3%" filterUnits="objectBoundingBox">
      <feOffset dy="3" in="SourceAlpha" result="shadowOffsetOuter1"/>
      <feGaussianBlur in="shadowOffsetOuter1" result="shadowBlurOuter1" stdDeviation="2.5"/>
      <feColorMatrix in="shadowBlurOuter1" values="0 0 0 0 0.226589073   0 0 0 0 0.226589073   0 0 0 0 0.226589073  0 0 0 0.5 0"/>
    </filter>
    <path id="splash_web-l" d="M4.65716438,3.32399223 C4.65689991,3.32326916 4.14941897,1.93522626 5.33457022,0.925668801 C6.52003027,-0.0841517092 8.63692322,0.589061964 9.31432896,2.35624786 C10.0764104,5.17533012 8.00185533,8.62555019 7.23977387,9.76159827 L4.65716448,3.32399251 C4.65716448,3.32399251 4.65716444,3.32399242 4.65716438,3.32399223 C4.65251956,3.31349474 4.05848069,1.97772953 2.54027153,2.01964102 C0.973770755,2.06171688 -0.127013577,3.99720619 0.635067883,5.76439208 C2.03221723,8.33101921 5.88496239,9.42499143 7.23977387,9.76159827 Z"/>
    <filter id="splash_web-k" width="298%" height="293.4%" x="-99%" y="-64.5%" filterUnits="objectBoundingBox">
      <feOffset dy="3" in="SourceAlpha" result="shadowOffsetOuter1"/>
      <feGaussianBlur in="shadowOffsetOuter1" result="shadowBlurOuter1" stdDeviation="2.5"/>
      <feColorMatrix in="shadowBlurOuter1" values="0 0 0 0 0.127232143   0 0 0 0 0.123888685   0 0 0 0 0.123888685  0 0 0 0.657240716 0"/>
    </filter>
    <radialGradient id="splash_web-m" cx="49.658%" cy="49.799%" r="39.298%" fx="49.658%" fy="49.799%" gradientTransform="matrix(1 0 0 .23712 0 .38)">
      <stop offset="0%"/>
      <stop offset="90.17%"/>
    </radialGradient>
    <linearGradient id="splash_web-n" x1="-6.957%" x2="93.583%" y1="46.53%" y2="54.919%">
      <stop offset="16.43%" stop-color="#F5A0C5"/>
      <stop offset="96.08%" stop-color="#EFB9D1"/>
    </linearGradient>
    <path id="splash_web-p" d="M2.3705218,1.57996501 C2.38656822,1.35093767 2.48777271,0.903789293 3.00598798,0.631137819 C3.68339372,0.294530982 4.65716448,0.883592947 4.7418402,1.80926175 C4.7418402,3.25276073 3.39946533,4.61540712 2.82796732,5.10468241 L2.83663655,5.17533012 C2.20156866,4.88079913 0.465716448,3.87097862 0.127013577,2.44039957 C-1.83603133e-14,1.47265491 0.76208146,0.673213674 1.52416292,0.841517092 C2.06899504,0.961841642 2.28923146,1.36174157 2.3705218,1.57996501 Z"/>
    <filter id="splash_web-o" width="488.9%" height="487.9%" x="-194.4%" y="-129.3%" filterUnits="objectBoundingBox">
      <feOffset dy="3" in="SourceAlpha" result="shadowOffsetOuter1"/>
      <feGaussianBlur in="shadowOffsetOuter1" result="shadowBlurOuter1" stdDeviation="2.5"/>
      <feColorMatrix in="shadowBlurOuter1" values="0 0 0 0 0.226589073   0 0 0 0 0.226589073   0 0 0 0 0.226589073  0 0 0 0.5 0"/>
    </filter>
    <linearGradient id="splash_web-q" x1="43.821%" x2="66.686%" y1="91.217%" y2="-3.717%">
      <stop offset="0%" stop-color="#FFF"/>
      <stop offset="44.25%" stop-color="#F5F5F6"/>
      <stop offset="100%" stop-color="#E6E7E8"/>
    </linearGradient>
  </defs>
  <g fill="none" fill-rule="evenodd">
    <g fill-rule="nonzero">
      <path fill="#292B37" d="M40.2816518,133.101949 C37.3600248,132.530937 2.21858566,127.416663 4.79890112,89.6678549 C7.37921658,51.919047 10.6285027,40.573302 24.2946179,36.4148506 C37.9607332,32.2563992 71.1635226,12.6061648 97.226074,31.3005761 C123.288625,49.9949874 151.412699,66.7405125 140.244984,96.5820562 C129.07727,126.4236 127.261492,136.366643 98.140789,134.852222 C69.0337384,133.325388 54.1935114,135.795632 40.2816518,133.101949 Z"/>
      <g transform="translate(127.694 20.1)">
        <use fill="#000" filter="url(#splash_web-a)" xlink:href="#splash_web-b"/>
        <use fill="url(#splash_web-c)" fill-rule="evenodd" xlink:href="#splash_web-b"/>
      </g>
      <g transform="translate(130.103 47.224)">
        <use fill="#000" filter="url(#splash_web-d)" xlink:href="#splash_web-e"/>
        <use fill="url(#splash_web-c)" fill-rule="evenodd" xlink:href="#splash_web-e"/>
      </g>
      <path fill="#82BEE0" d="M44.6068786,29.9663763 C44.6068786,29.9663763 58.5887696,29.170067 61.672389,24.6017663 C64.7560085,20.0334656 66.7413525,5.90945323 66.7413525,5.90945323 C66.7413525,5.90945323 69.8672133,11.0645082 67.5861798,25.1885205 C65.3473876,39.3125328 48.1129117,38.4743125 46.8034295,37.4684481 C45.4939473,36.4625837 42.4525692,32.3972152 44.6068786,29.9663763 Z"/>
      <path fill="#414453" d="M46.9723949,13.160059 C46.9723949,13.160059 40.4249838,8.34029214 36.834468,15.1298767 C33.2439522,21.9194613 15.2913732,17.2673385 10.5603406,14.2078344 C10.2224097,15.2556098 9.92672015,16.3452962 9.71551334,17.4349826 C9.63103062,17.8540927 12.4612019,18.692313 12.4189605,19.0695122 C12.3344778,19.4886223 9.33534108,19.4467113 9.25085836,19.8658215 C9.03965154,21.0812409 8.91292746,22.2966604 8.82844473,23.4701688 C8.78620337,23.805457 17.2344758,24.0569231 17.2344758,24.3922112 C17.2344758,24.6017663 8.74396201,24.8532324 8.74396201,25.1046985 C8.40603111,31.76855 9.37758244,36.9236049 9.37758244,36.9236049 C9.37758244,36.9236049 21.5430948,40.1926642 47.9861876,23.2606138 C48.6620494,20.9555079 48.7465322,16.3033851 46.9723949,13.160059 Z"/>
      <path fill="#F7D5CB" d="M67.0792834,5.53225409 C67.0792834,5.53225409 67.5439384,1.25733047 70.0361788,0.335288126 C73.0353155,1.55070758 69.4870411,3.47861431 67.0792834,5.53225409 Z"/>
      <path fill="#F6F9FA" d="M28.2172301,59.6812865 C28.2172301,59.6812865 38.7353293,60.7290619 41.269811,64.7106084 C45.1982577,62.5312356 52.5060134,61.5253712 52.5060134,61.5253712 C52.5060134,61.5253712 55.8008397,88.8094425 39.7913633,124.433806 C41.3542937,108.256154 43.593086,81.3073707 37.6370539,75.5655615 C25.8517138,97.6945778 11.7853401,98.281332 2.11206812,90.150595 C25.5560242,99.1614634 28.2172301,59.6812865 28.2172301,59.6812865 Z"/>
      <path fill="#B0E2F7" d="M39.6223979,31.5589949 C39.6223979,31.5589949 29.8646432,35.7081855 25.2603347,72.4641463 C33.4974003,77.8287563 53.7732543,75.1883623 53.7732543,75.1883623 C53.7732543,75.1883623 58.4198041,32.3133932 46.3387745,30.3435754 C42.9594655,30.0082873 39.6223979,31.5589949 39.6223979,31.5589949 Z"/>
      <path fill="#FFF" d="M40.7629147 121.793412C40.7629147 121.793412 42.0301555 122.044878 43.8042928 124.308073 45.57843 126.529357 44.6068786 126.697001 44.6068786 126.697001L38.8620534 124.224251C38.8620534 124.224251 39.4534324 121.039014 40.7629147 121.793412zM1.64741313 89.6895738C1.64741313 89.6895738.71810316 90.5697051.337930899 93.3777432 2.44249065e-15 96.1857813.887068609 95.8504931.887068609 95.8504931L4.51982577 90.7792602C4.56206713 90.7373492 2.40775765 88.3484213 1.64741313 89.6895738z"/>
      <ellipse cx="42.749" cy="20.667" fill="#F4C4B4" rx="5.534" ry="8.508" transform="rotate(-6.344 42.75 20.667)"/>
      <path fill="#F4C4B4" d="M47.2258431,30.4273975 C47.6482567,31.6847279 41.4810178,33.6964567 40.5094665,31.1817958 C40.3827424,29.9244653 40.5939492,24.1407451 40.5939492,24.1407451 L45.5361886,23.5959019 C45.57843,23.5539909 46.8034295,29.170067 47.2258431,30.4273975 Z"/>
      <path fill="#414453" d="M46.2120504,13.9563683 C46.2120504,13.9563683 40.6361906,19.3628893 35.0180894,16.8063173 C36.834468,16.5129402 37.299123,15.800453 37.8060193,14.8784106 C38.355157,13.9563683 41.3542937,9.22042348 46.2120504,13.9563683 Z"/>
      <path fill="#82BEE0" d="M47.099119,40.1088421 C47.099119,40.1088421 34.5534344,61.6091932 13.052581,63.662833 C23.6551629,56.6636934 32.0189527,49.5807317 35.7784339,38.4743125 C38.6508466,33.6964567 41.3120524,32.3972152 44.5646373,33.7802787 C48.1973944,36.3368507 47.099119,40.1088421 47.099119,40.1088421 Z"/>
      <path fill="#F4C4B4" d="M12.8836155,63.8304771 C12.8836155,63.8304771 9.88447879,60.7290619 7.34999705,61.5253712 C5.70258392,64.2914982 9.71551334,63.662833 12.8836155,63.8304771 Z"/>
      <g filter="url(#splash_web-f)" transform="translate(50.997 26.545)">
        <g transform="translate(22.016 19.355)">
          <path fill="#E5A38C" d="M4.31846161,16.1571282 C4.31846161,16.1571282 0.508054307,14.8107008 0.169351436,12.3703013 C1.94754151,9.92990169 2.92131226,13.5484252 4.31846161,16.1571282 Z"/>
          <path fill="#E5A38C" d="M23.116471,5.80646794 C23.116471,5.80646794 18.2476172,11.6129359 15.9613728,18.3871485 C15.6226699,19.9018792 6.09665168,17.7139348 4.06443445,15.8625972 C3.76806944,16.6620384 9.14497752,22.2581271 15.6650078,25.8345747 C16.511765,26.2974091 17.6125493,25.9608023 18.3746308,25.3296645 C22.3543895,21.9635961 31.8804078,12.6648322 32.2614485,7.40535041 C32.4731378,4.03928204 23.116471,5.80646794 23.116471,5.80646794 Z"/>
          <path fill="#82BEE0" d="M19.4330772,10.3085844 C19.4330772,10.3085844 27.3502568,14.2216389 28.197014,15.3576869 C29.0014333,16.493735 33.4045707,6.90044016 33.3622328,5.21740597 C33.2775571,3.53437179 29.2554605,-2.52455128 25.2757018,2.10379273 C21.2536052,6.73213674 19.4330772,10.3085844 19.4330772,10.3085844 Z"/>
        </g>
        <path fill="#F4C4B4" d="M38.9084923 57.1810864L19.5600908 61.7252787C18.5016443 62.3143407 17.8665765 63.4083129 17.9089143 64.6285127 18.0359279 70.0983738 26.9692161 81.2484752 32.3884621 93.7870799 34.0396386 77.9665586 27.7736354 69.7617669 27.7736354 69.7617669L42.6342239 70.603284C42.6342239 70.603284 43.4809811 56.12919 38.9084923 57.1810864zM52.1602422 70.4349806L55.208568 85.7926675C55.6319466 86.9287156 56.6057173 87.7281569 57.7911774 87.8964603 63.2104233 88.6959015 78.2403632 84.4462402 92.3812081 82.5528267 82.4318113 80.154503 64.8615998 81.2905511 64.8615998 81.2905511L65.6660192 69.0044016C65.708357 69.0044016 51.906215 65.7645607 52.1602422 70.4349806z"/>
        <path fill="#B0E2F7" d="M45.6825498,55.5401281 C45.6825498,55.5401281 49.6623085,50.9117841 54.023108,51.500846 C57.1137717,47.7981708 66.7668035,50.7014048 66.7668035,50.7014048 C66.7668035,50.7014048 69.01071,51.9216046 66.2164113,72.2863182 L51.9485529,72.3283941 C51.1864714,70.1825255 51.1441336,70.0562979 51.0594578,69.9300704 C49.1119163,70.5191323 47.6300913,71.5289528 38.1887487,71.0240426 L33.1928814,57.9384518 C42.1685075,54.8248386 45.6825498,55.5401281 45.6825498,55.5401281 Z"/>
        <path fill="#F6F9FA" d="M54.4041487,22.2581271 C54.4041487,22.2581271 64.1841941,31.26236 67.9946014,54.1516249 C59.6117053,58.6537413 42.3378589,56.9707071 42.3378589,56.9707071 C42.3378589,56.9707071 37.7230323,26.9706228 47.714767,21.5007617 C51.1017957,21.122079 54.4041487,22.2581271 54.4041487,22.2581271 Z"/>
        <path fill="#414453" d="M93.0586139 83.9834058C93.0586139 83.9834058 92.719911 85.8347434 90.3489909 86.8445639 85.522475 86.9287156 88.9941794 85.7085158 88.9941794 85.7085158L90.7300316 81.9216889C90.7300316 81.9216889 93.8206953 82.468675 93.0586139 83.9834058zM31.795732 92.314425C31.795732 92.314425 30.5255963 92.1040457 28.0700005 93.6187765 25.6144046 95.1335073 26.4611618 95.5963417 26.4611618 95.5963417L32.7695028 95.2597348C32.7695028 95.2597348 33.319895 92.0619699 31.795732 92.314425z"/>
        <ellipse cx="48.949" cy="10.858" fill="#F4C4B4" rx="6.012" ry="9.215" transform="rotate(-6.35 48.95 10.858)"/>
        <path fill="#F4C4B4" d="M53.6420672,21.9215202 C54.0654458,23.1837959 47.8417806,25.2455128 46.8680098,22.6788856 C46.7409962,21.41661 46.9526855,15.5680662 46.9526855,15.5680662 L51.9485529,15.0210801 C51.9908907,15.0210801 53.2186886,20.6592446 53.6420672,21.9215202 Z"/>
        <path fill="#414453" d="M44.8357926,2.01964102 C44.8357926,2.01964102 50.0433492,12.8752115 55.5896087,13.3380459 C58.0452046,14.1374871 60.1197596,12.8331357 60.1197596,12.8331357 C60.1197596,12.8331357 57.621826,12.5806805 57.2407852,12.0757703 C56.8174066,11.5287842 57.2831231,7.36327456 54.5735001,4.46004059 C53.0069993,1.09397222 47.714767,-0.420758546 46.2752798,0.799441238"/>
        <path fill="#414453" d="M45.9789148,2.44039957 C45.9789148,2.44039957 43.9890354,9.84574998 42.8459132,11.0659498 C41.6604532,12.3282254 41.406426,2.7770064 45.301509,1.51473077 C49.196592,0.252455128 45.9789148,2.44039957 45.9789148,2.44039957 Z"/>
        <path fill="#82BEE0" d="M46.4869691,59.9580928 L51.01712,69.8459186 C51.0594578,69.8879945 51.5251743,66.7323054 46.4869691,59.9580928 Z"/>
        <g transform="translate(0 2.104)">
          <g transform="translate(5.08 19.776)">
            <g transform="translate(0 .42)">
              <path fill="#A2C450" d="M0.338702871,0.336606837 C4.10677231,-0.168303418 15.9613728,6.64798503 15.9613728,6.64798503 C15.9613728,6.64798503 15.8766971,7.3211987 15.6226699,7.82610896 C12.2356412,5.76439208 4.57248876,1.17812393 0.338702871,0.336606837 Z"/>
              <path fill="#8FAA3D" d="M14.1408449,8.07856408 C12.7013577,6.73213674 6.22366526,2.90323397 0.296365012,0.336606837 C4.5301509,1.17812393 12.2356412,5.76439208 15.5803321,7.86818481 C15.3263049,8.37309507 14.8605885,8.75177776 14.1408449,8.07856408 Z"/>
            </g>
            <g transform="translate(8.044)">
              <path fill="#A2C450" d="M0.127013577,0.168303418 C0.38104073,2.86115811 7.19743601,8.75177776 7.19743601,8.75177776 C7.19743601,8.75177776 7.66315246,8.49932263 8.00185533,8.16271579 C5.9696381,6.52175746 1.4394872,2.73493055 0.127013577,0.168303418 Z"/>
              <path fill="#8FAA3D" d="M7.91717961,7.11081943 C6.73171957,6.56383332 2.92131226,3.36606837 0.127013577,0.168303418 C1.4394872,2.7770064 5.9696381,6.52175746 8.00185533,8.16271579 C8.3405582,7.7840331 8.5522475,7.36327456 7.91717961,7.11081943 Z"/>
            </g>
          </g>
          <g transform="translate(18.205 1.683)">
            <g transform="translate(3.387)">
              <path fill="#A2C450" d="M1.31247363,0.336606837 C-1.22779791,5.04910255 1.98987937,24.025313 1.98987937,24.025313 C1.98987937,24.025313 2.92131226,24.2356923 3.72573158,24.1515405 C2.66728511,18.7237553 0.38104073,6.31137819 1.31247363,0.336606837 Z"/>
              <path fill="#8FAA3D" d="M4.78417806,22.3422788 C3.72573158,19.7756517 1.82052793,9.38291558 1.31247363,0.294530982 C0.338702871,6.31137819 2.62494725,18.6816794 3.76806944,24.1094647 C4.61482662,24.0673888 5.33457022,23.6466303 4.78417806,22.3422788 Z"/>
            </g>
            <g transform="translate(0 10.098)">
              <path fill="#A2C450" d="M0.0423378589,0.252455128 C3.51404229,1.93548931 7.95951747,13.8429562 7.95951747,13.8429562 C7.95951747,13.8429562 7.36678745,14.3057906 6.77405742,14.6003215 C5.63093523,11.1080256 2.83663655,3.28191666 0.0423378589,0.252455128 Z"/>
              <path fill="#8FAA3D" d="M5.41924594,13.9691837 C5.2498945,12.1178461 2.87897441,5.55401281 0.0423378589,0.252455128 C2.83663655,3.28191666 5.63093523,11.1080256 6.77405742,14.6003215 C6.13898954,14.8527767 5.50392166,14.8948525 5.41924594,13.9691837 Z"/>
            </g>
          </g>
          <g transform="translate(2.964 9.677)">
            <path fill="#1E2029" d="M13.505777,15.2314594 C16.5964407,17.7560106 19.517753,19.3548931 19.9834694,18.807907 C20.4491858,18.2609209 18.289955,15.7363696 15.1992913,13.2118183 C12.1086276,10.6872671 9.18731538,9.08838459 8.72159893,9.6353707 C8.25588249,10.1823568 10.4151133,12.7069081 13.505777,15.2314594 Z"/>
            <g transform="translate(10.161 12.202)">
              <path fill="#A2C450" d="M0.0423378589,0.336606837 C2.28624438,0.210379273 8.93328823,4.79664743 8.93328823,4.79664743 C8.93328823,4.79664743 8.84861251,5.17533012 8.67926107,5.4698611 C6.81639528,4.0813579 2.49793368,1.05189637 0.0423378589,0.336606837 Z"/>
              <path fill="#8FAA3D" d="M7.8325039,5.55401281 C7.02808458,4.71249572 3.42936657,2.14586858 0.0846757178,0.378682691 C2.54027153,1.09397222 6.85873314,4.12343375 8.72159893,5.51193695 C8.50990964,5.76439208 8.21354463,5.97477135 7.8325039,5.55401281 Z"/>
            </g>
            <path fill="#DEE899" d="M8.84861251,9.38291558 C8.84861251,9.38291558 11.9816141,11.1921773 18.5016443,17.7560106 C18.8826851,17.5035555 19.0096986,17.1248728 19.0096986,17.1248728 C19.0096986,17.1248728 9.65303183,9.34083972 9.61069397,7.99441238 C8.12886891,7.99441238 8.84861251,9.38291558 8.84861251,9.38291558 Z"/>
            <g transform="translate(14.818 12.202)">
              <path fill="#A2C450" d="M0.0423378589,0.378682691 C0.0846757178,1.97756517 3.8104073,5.76439208 3.8104073,5.76439208 C3.8104073,5.76439208 4.10677231,5.63816452 4.31846161,5.4698611 C3.17533942,4.37588888 0.677405742,1.93548931 0.0423378589,0.378682691 Z"/>
              <path fill="#8FAA3D" d="M4.27612375,4.79664743 C3.59871801,4.41796473 1.52416292,2.35624786 0,0.336606837 C0.635067883,1.93548931 3.13300156,4.37588888 4.27612375,5.38570939 C4.48781304,5.21740597 4.65716448,5.0070267 4.27612375,4.79664743 Z"/>
            </g>
            <use fill="#000" filter="url(#splash_web-g)" xlink:href="#splash_web-h"/>
            <use fill="url(#splash_web-c)" fill-rule="evenodd" xlink:href="#splash_web-h"/>
          </g>
          <g transform="translate(0 5.47)">
            <path fill="#A2C450" d="M0.296365012,0.378682691 C7.28211173,1.43057906 24.7253096,19.6073482 24.7253096,19.6073482 C24.7253096,19.6073482 24.2172553,20.7433963 23.4975117,21.5428376 C18.6709958,16.1571282 7.40912531,4.0813579 0.296365012,0.378682691 Z"/>
            <path fill="#8FAA3D" d="M20.8302266,21.2062307 C18.9673608,18.0926175 9.48368039,7.99441238 0.296365012,0.378682691 C7.36678745,4.0813579 18.6709958,16.1571282 23.4975117,21.5428376 C22.7777681,22.3422788 21.7616595,22.7630373 20.8302266,21.2062307 Z"/>
            <g transform="translate(14.395 3.366)">
              <path fill="#A2C450" d="M0.169351436,0 C-0.76208146,4.92287499 8.29822034,18.8920587 8.29822034,18.8920587 C8.29822034,18.8920587 9.2719911,18.6816794 9.9917347,18.218845 C7.23977387,14.3057906 1.14312219,5.25948183 0.169351436,0 Z"/>
              <path fill="#8FAA3D" d="M10.4151133,16.3254316 C8.59458536,14.7265491 3.51404229,7.11081943 0.169351436,0 C1.14312219,5.25948183 7.23977387,14.3057906 9.9917347,18.218845 C10.7538162,17.7560106 11.3042083,17.1248728 10.4151133,16.3254316 Z"/>
            </g>
          </g>
          <g transform="translate(4.234)">
            <path fill="#1E2029" d="M13.0823984,21.5849134 C15.8766971,25.9187264 18.7980094,28.9902638 19.5600908,28.4853536 C20.3645101,27.9804433 18.7556715,24.0673888 15.9613728,19.7335758 C13.1670741,15.3997628 10.2457619,12.3282254 9.48368039,12.8331357 C8.67926107,13.3380459 10.2880997,17.2931762 13.0823984,21.5849134 Z"/>
            <g transform="translate(9.738 16.83)">
              <path fill="#A2C450" d="M0.38104073,0.210379273 C3.17533942,0.967744656 9.48368039,9.1725363 9.48368039,9.1725363 C9.48368039,9.1725363 9.22965324,9.6353707 8.89095037,9.88782583 C7.15509815,7.44742627 3.0906637,2.01964102 0.38104073,0.210379273 Z"/>
              <path fill="#8FAA3D" d="M7.8325039,9.59329485 C7.19743601,8.2468675 3.8104073,3.70267521 0.38104073,0.168303418 C3.0906637,1.97756517 7.15509815,7.40535041 8.89095037,9.84574998 C8.5522475,10.1823568 8.12886891,10.3085844 7.8325039,9.59329485 Z"/>
            </g>
            <path fill="#DEE899" d="M9.69536969,12.6227564 C9.69536969,12.6227564 12.8283712,16.1150523 18.1629415,26.6760918 C18.7133336,26.5498643 19.0520365,26.1291057 19.0520365,26.1291057 C19.0520365,26.1291057 10.7114783,12.9172874 11.1771947,11.2342532 C9.39900468,10.6031154 9.69536969,12.6227564 9.69536969,12.6227564 Z"/>
            <g transform="translate(15.665 18.513)">
              <path fill="#A2C450" d="M0.127013577,0.336606837 C-0.465716448,2.314172 2.58260939,8.41517092 2.58260939,8.41517092 C2.58260939,8.41517092 2.96365012,8.37309507 3.30235299,8.20479165 C2.3709201,6.52175746 0.296365012,2.56662713 0.127013577,0.336606837 Z"/>
              <path fill="#8FAA3D" d="M3.55638015,7.48950212 C2.87897441,6.73213674 1.14312219,3.40814422 0.127013577,0.378682691 C0.296365012,2.56662713 2.3709201,6.52175746 3.30235299,8.2468675 C3.64105587,8.07856408 3.89508302,7.86818481 3.55638015,7.48950212 Z"/>
            </g>
            <use fill="#000" filter="url(#splash_web-i)" xlink:href="#splash_web-j"/>
            <use fill="url(#splash_web-c)" fill-rule="evenodd" xlink:href="#splash_web-j"/>
          </g>
          <g transform="translate(13.125 4.628)">
            <path fill="#1E2029" d="M7.79016604,16.493735 C9.2719911,19.9860309 10.9655055,22.5526581 11.6005733,22.3002029 C12.2356412,22.0477478 11.5582355,19.0182863 10.0764104,15.5259903 C8.59458536,12.0336944 6.901071,9.46706729 6.26600312,9.71952241 C5.63093523,10.0140534 6.30834098,13.0435149 7.79016604,16.493735 Z"/>
            <g transform="translate(5.927 12.623)">
              <path fill="#A2C450" d="M0.296365012,0.210379273 C2.24390652,1.09397222 5.75794881,7.7840331 5.75794881,7.7840331 C5.75794881,7.7840331 5.50392166,8.07856408 5.2498945,8.2468675 C4.27612375,6.31137819 2.03221723,1.8513376 0.296365012,0.210379273 Z"/>
              <path fill="#8FAA3D" d="M4.48781304,7.95233652 C4.19144803,6.90044016 2.28624438,3.19776495 0.296365012,0.210379273 C2.03221723,1.8513376 4.27612375,6.31137819 5.2498945,8.2468675 C4.95352949,8.41517092 4.61482662,8.45724678 4.48781304,7.95233652 Z"/>
            </g>
            <path fill="#DEE899" d="M6.47769241,9.59329485 C6.47769241,9.59329485 8.29822034,12.4965288 10.8384919,20.7854722 C11.2618705,20.7433963 11.5582355,20.4909412 11.5582355,20.4909412 C11.5582355,20.4909412 7.19743601,9.88782583 7.74782818,8.75177776 C6.47769241,8.12063994 6.47769241,9.59329485 6.47769241,9.59329485 Z"/>
            <g transform="translate(9.738 14.727)">
              <path fill="#A2C450" d="M0.338702871,0.126227564 C-0.338702871,1.47265491 1.10078433,6.26930234 1.10078433,6.26930234 C1.10078433,6.26930234 1.39714934,6.26930234 1.6511765,6.22722648 C1.18546005,4.88079913 0.169351436,1.76718589 0.338702871,0.126227564 Z"/>
              <path fill="#8FAA3D" d="M1.94754151,5.72231623 C1.56650078,5.09117841 0.719743601,2.48247542 0.338702871,0.168303418 C0.169351436,1.76718589 1.18546005,4.88079913 1.6511765,6.26930234 C1.94754151,6.18515063 2.1592308,6.01684721 1.94754151,5.72231623 Z"/>
            </g>
            <use fill="#000" filter="url(#splash_web-k)" xlink:href="#splash_web-l"/>
            <use fill="url(#splash_web-c)" fill-rule="evenodd" xlink:href="#splash_web-l"/>
          </g>
          <g transform="translate(22.44 13.885)">
            <path fill="url(#splash_web-m)" d="M3.0906637,8.49932263 C3.38702871,10.3506602 3.89508302,11.8233151 4.23378589,11.7812393 C4.57248876,11.7391634 4.61482662,10.1823568 4.36079947,8.33101921 C4.06443445,6.47968161 3.55638015,5.0070267 3.21767728,5.04910255 C2.87897441,5.09117841 2.83663655,6.64798503 3.0906637,8.49932263 Z"/>
            <g transform="translate(2.54 6.311)">
              <path fill="#A2C450" d="M0.254027153,0.210379273 C1.05844647,0.883592947 1.94754151,4.5441923 1.94754151,4.5441923 C1.94754151,4.5441923 1.77819007,4.67041986 1.6511765,4.71249572 C1.4394872,3.66059935 0.889095037,1.22019978 0.254027153,0.210379273 Z"/>
              <path fill="#8FAA3D" d="M1.31247363,4.46004059 C1.31247363,3.91305448 0.846757178,1.89341346 0.254027153,0.210379273 C0.889095037,1.22019978 1.4394872,3.66059935 1.6511765,4.71249572 C1.48182506,4.75457157 1.31247363,4.75457157 1.31247363,4.46004059 Z"/>
            </g>
            <path fill="#DEE899" d="M3.30235299,4.96495084 C3.30235299,4.96495084 3.8104073,6.60590917 4.0220966,10.9397222 C4.23378589,10.9817981 4.40313733,10.8976463 4.40313733,10.8976463 C4.40313733,10.8976463 3.59871801,5.21740597 4.0220966,4.75457157 C3.51404229,4.24966132 3.30235299,4.96495084 3.30235299,4.96495084 Z"/>
            <g transform="translate(3.81 7.994)">
              <path fill="#A2C450" d="M0.592730025,0 C0.0846757178,0.589061964 0.211689294,3.07153739 0.211689294,3.07153739 C0.211689294,3.07153739 0.338702871,3.11361324 0.465716448,3.11361324 C0.423378589,2.39832371 0.338702871,0.757365383 0.592730025,0 Z"/>
              <path fill="#8FAA3D" d="M0.677405742,2.90323397 C0.550392166,2.56662713 0.508054307,1.17812393 0.592730025,-2.84217094e-14 C0.296365012,0.757365383 0.423378589,2.39832371 0.465716448,3.11361324 C0.635067883,3.11361324 0.76208146,3.07153739 0.677405742,2.90323397 Z"/>
            </g>
            <g transform="translate(.847)">
              <path fill="url(#splash_web-n)" d="M2.3709201,1.72511004 C2.3709201,1.72511004 2.28624438,1.00982051 3.00598798,0.631137819 C3.68339372,0.294530982 4.65716448,0.883592947 4.7418402,1.80926175 C4.7418402,3.28191666 3.34469085,4.67041986 2.79429869,5.13325426"/>
              <use fill="#000" filter="url(#splash_web-o)" xlink:href="#splash_web-p"/>
              <use fill="url(#splash_web-c)" fill-rule="evenodd" xlink:href="#splash_web-p"/>
            </g>
          </g>
          <g transform="translate(13.971 19.355)">
            <path fill="url(#splash_web-q)" d="M0.423378589,6.56383332 C0.423378589,6.56383332 13.1670741,1.30435149 13.1247363,0.420758546 C13.1247363,-0.504910255 14.0561692,12.2019978 15.0722778,14.8107008 C16.0883864,17.4194038 13.2940877,16.788266 13.2940877,16.788266 C13.2940877,16.788266 2.20156866,6.77421259 0.423378589,6.56383332 Z"/>
            <path fill="#FFF" d="M15.2416292,15.7784455 C15.1992913,15.9467489 15.1569535,16.0729765 15.0299399,16.199204 C14.3101963,17.0407211 13.3364256,16.8303418 13.2517498,16.8303418 C13.1670741,16.7461901 2.20156866,6.8583643 0.423378589,6.64798503 L0.254027153,6.64798503 L0.423378589,6.56383332 C5.4615838,4.50211644 12.9553848,1.17812393 13.1247363,0.462834401 C13.1247363,0.462834401 13.1247363,0.462834401 13.1247363,0.420758546 C13.1247363,0.378682691 13.1247363,0.336606837 13.1670741,0.336606837 C13.1670741,0.336606837 13.209412,0.336606837 13.209412,0.378682691 C13.209412,0.378682691 13.209412,0.378682691 13.209412,0.378682691 C13.2517498,0.504910255 13.2517498,0.841517092 13.3364256,1.72511004 C13.6327906,5.04910255 14.394872,12.7910598 15.1569535,14.768625 C15.2839671,15.1473077 15.3263049,15.4839145 15.2416292,15.7784455 Z M13.2940877,16.7041143 C13.4634391,16.7461901 14.3101963,16.8724177 14.9876021,16.1150523 C15.2416292,15.8205213 15.2416292,15.3576869 15.0299399,14.8107008 C14.2678584,12.8331357 13.5481148,5.04910255 13.209412,1.72511004 C13.1670741,1.22019978 13.1247363,0.799441238 13.0823984,0.54698611 C12.8283712,0.841517092 11.7699248,1.59888248 6.77405742,3.87097862 C4.0220966,5.13325426 1.18546005,6.26930234 0.550392166,6.56383332 C2.66728511,7.19497114 12.7860334,16.199204 13.2940877,16.7041143 Z"/>
            <path fill="#FFF" d="M13.209412,15.6942938 L12.9553848,21.3324583 C12.9553848,21.3324583 14.9029263,21.2483066 14.9029263,20.8696239 C14.9029263,20.4909412 15.6650078,20.533017 16.4270893,20.4067895 C17.1891707,20.2384861 19.1367122,19.102438 18.7556715,18.7237553 C18.4169686,18.3450726 14.0561692,15.3997628 13.802142,14.7265491 C13.5904527,14.0533354 13.209412,15.6942938 13.209412,15.6942938 Z"/>
          </g>
        </g>
        <g transform="translate(19.052 23.562)">
          <path fill="#F4C4B4" d="M5.20755664 11.9074669C5.20755664 11.9074669 1.14312219 11.9916186 0 9.84574998.719743601 6.90044016 2.96365012 9.92990169 5.20755664 11.9074669zM29.1284469 5.30155768C29.1284469 5.30155768 23.8785524 10.7714188 21.0842537 17.377328 20.6608751 18.8499829 7.1127603 13.9271079 5.20755664 11.9074669 4.82651591 12.6648322 12.3203169 21.2903824 20.2374966 24.7406025 21.1265916 25.1192852 22.1850381 24.9930576 22.9471195 24.4460715 27.1385676 21.3745341 37.2996537 12.7489839 38.0617352 7.53157797 38.5697895 4.20758546 29.1284469 5.30155768 29.1284469 5.30155768z"/>
          <path fill="#82BEE0" d="M25.1063503,9.50914314 C25.1063503,9.50914314 32.7271649,13.9691837 33.4892464,15.1473077 C34.20899,16.3254316 39.2895331,7.06874357 39.3318709,5.38570939 C39.3742088,3.70267521 35.8178286,-2.65077884 31.499367,1.68303418 C27.1809054,6.10099892 25.1063503,9.50914314 25.1063503,9.50914314 Z"/>
        </g>
      </g>
    </g>
    <path fill="#FFF" d="M8.45507812,152.938477 C8.85221553,152.541339 9.2294904,152.342773 9.58691406,152.342773 C10.0634789,152.342773 10.5003235,152.700192 10.8974609,153.415039 C11.0166022,153.613608 11.115885,154.388014 11.1953125,155.738281 C11.2350262,157.088548 11.2350262,158.796214 11.1953125,160.861328 C11.1953125,162.886729 11.1754559,164.85253 11.1357422,166.758789 C11.0960284,168.665049 11.0563153,170.650706 11.0166016,172.71582 C10.9768878,174.780935 10.9570312,176.111325 10.9570312,176.707031 L15.1865234,176.707031 C21.3024394,176.746745 24.8170527,177.521151 25.7304688,179.030273 C25.84961,179.228842 25.9290363,179.447264 25.96875,179.685547 C25.96875,179.963543 25.8694671,180.241535 25.6708984,180.519531 C25.3929023,180.996096 24.7773485,181.254232 23.8242188,181.293945 L23.6455078,181.293945 C22.5335231,181.293945 19.5351807,181.115236 14.6503906,180.757812 C10.162738,180.479816 7.74023616,180.162111 7.3828125,179.804688 C7.02538884,179.40755 6.84667969,178.573574 6.84667969,177.302734 C6.84667969,175.992181 7.04524541,171.901727 7.44238281,165.03125 C7.87923396,157.326784 8.21679568,153.2959 8.45507812,152.938477 Z M31.0917969,161.814453 C30.3769496,161.814453 29.940105,161.675457 29.78125,161.397461 C29.622395,161.119465 29.5231122,160.186206 29.4833984,158.597656 C29.4436847,158.121091 29.4238281,157.684247 29.4238281,157.287109 C29.4238281,156.01627 29.5628241,154.963871 29.8408203,154.129883 C30.1188165,153.454749 30.4762348,153.037761 30.9130859,152.878906 L31.2109375,152.878906 C31.5286474,152.878906 31.8662092,153.057615 32.2236328,153.415039 C32.5810565,153.85189 32.8391919,154.765293 32.9980469,156.155273 C33.0377606,156.75098 33.0576172,157.306964 33.0576172,157.823242 C33.0576172,158.53809 32.9980475,159.23307 32.8789062,159.908203 C32.6803375,160.781905 32.5016284,161.318033 32.3427734,161.516602 C32.1839185,161.71517 31.7669305,161.814453 31.0917969,161.814453 Z M47.1162109,175.753906 C47.1162109,174.721349 46.9573584,173.84766 46.6396484,173.132812 C46.3219385,172.298824 45.8453808,171.881836 45.2099609,171.881836 C44.4951136,171.881836 43.5817113,172.37825 42.4697266,173.371094 C41.794593,174.006514 41.3378918,174.522784 41.0996094,174.919922 C40.9407544,175.237632 40.8613281,175.634763 40.8613281,176.111328 L40.8613281,176.349609 C40.9407556,177.461594 41.2981739,178.156574 41.9335938,178.43457 C42.1321625,178.513998 42.3704413,178.553711 42.6484375,178.553711 C43.2044299,178.553711 43.939123,178.375002 44.8525391,178.017578 C45.8056688,177.660154 46.4212226,177.342449 46.6992188,177.064453 C46.9772149,176.786457 47.1162109,176.349612 47.1162109,175.753906 Z M48.9033203,180.876953 C48.6650379,181.115236 47.7913487,181.452797 46.2822266,181.889648 C44.7731044,182.366213 43.6015667,182.604492 42.7675781,182.604492 C41.0598873,182.604492 39.6500707,182.008795 38.5380859,180.817383 C37.4261012,179.665684 36.8701172,178.216155 36.8701172,176.46875 C36.8701172,174.522777 37.6842367,172.695972 39.3125,170.988281 C40.9804771,169.28059 42.7675686,168.426758 44.6738281,168.426758 C45.2298205,168.426758 45.6070954,168.387045 45.8056641,168.307617 C46.0042328,168.22819 46.0638025,168.069337 45.984375,167.831055 C45.9049475,167.592772 45.6865252,167.175784 45.3291016,166.580078 C44.8128229,165.865231 44.0979863,165.507812 43.1845703,165.507812 C42.310868,165.547526 41.4967486,165.944658 40.7421875,166.699219 C39.5110616,168.0892 38.6175158,168.327479 38.0615234,167.414062 C37.7835273,166.977211 37.7636707,166.401371 38.0019531,165.686523 C38.2005218,164.971676 38.657223,164.25684 39.3720703,163.541992 C39.9677764,162.946286 40.6428999,162.569011 41.3974609,162.410156 C41.9137396,162.291015 42.5292933,162.231445 43.2441406,162.231445 L44.2568359,162.231445 C46.3219504,162.430014 47.8509065,163.26399 48.84375,164.733398 C49.7968798,166.163093 50.5315729,168.426742 51.0478516,171.524414 C51.3655615,173.192391 51.5244141,174.522781 51.5244141,175.515625 C51.5244141,175.634766 51.5045575,175.753906 51.4648438,175.873047 C51.42513,176.86589 51.1272814,177.838862 50.5712891,178.791992 C50.0947242,179.705408 49.5387402,180.400388 48.9033203,180.876953 Z M61.7109375,162.112305 C62.6243535,162.112305 63.3193336,162.211588 63.7958984,162.410156 C64.2724633,162.648439 64.8880171,163.184566 65.6425781,164.018555 C66.0397155,164.455406 66.6552693,165.090816 67.4892578,165.924805 C67.608399,165.726236 67.8665345,165.348961 68.2636719,164.792969 C68.700523,164.117835 69.4153596,163.601564 70.4082031,163.244141 C71.4407604,162.886717 72.3938758,162.787434 73.2675781,162.946289 C74.1809942,163.144858 75.2532491,163.839838 76.484375,165.03125 C77.7552147,166.222662 78.5891907,167.374343 78.9863281,168.486328 C79.5026067,169.717454 79.9791645,171.643542 80.4160156,174.264648 C80.7734393,176.250335 80.9521484,177.620439 80.9521484,178.375 C80.9521484,178.652996 80.9322919,178.851562 80.8925781,178.970703 C80.7734369,179.447268 80.3763055,179.78483 79.7011719,179.983398 C78.0729085,180.459963 76.9410839,178.931007 76.3056641,175.396484 C75.8688129,172.775378 75.5511078,171.166995 75.3525391,170.571289 C75.0348291,169.618159 74.4788451,168.764327 73.6845703,168.009766 C72.8902955,167.215491 72.2747418,166.917642 71.8378906,167.116211 C71.2818983,167.31478 70.8450537,168.168612 70.5273438,169.677734 C70.1699201,171.186857 69.9912109,173.013661 69.9912109,175.158203 C69.9912109,177.223318 69.8522149,178.573565 69.5742188,179.208984 C69.2565088,179.844404 68.6409551,180.162109 67.7275391,180.162109 C67.0524055,180.162109 66.5361346,179.864261 66.1787109,179.268555 C65.861001,178.672849 65.6028656,177.580737 65.4042969,175.992188 C65.1263007,174.165355 64.649743,172.199555 63.9746094,170.094727 C63.3391895,168.029612 62.8229187,166.818361 62.4257812,166.460938 C61.393224,165.626949 60.4401085,166.282216 59.5664062,168.426758 C58.8912727,170.094735 58.4742846,172.298814 58.3154297,175.039062 C58.1565747,177.064463 58.0175787,178.315427 57.8984375,178.791992 C57.7792963,179.228843 57.4814477,179.467122 57.0048828,179.506836 C56.2900355,179.625977 55.753908,179.328129 55.3964844,178.613281 C55.0390607,177.938148 54.7809253,176.627614 54.6220703,174.681641 C54.5426428,174.006507 54.5029297,173.371097 54.5029297,172.775391 C54.5029297,169.240868 55.5950412,166.321952 57.7792969,164.018555 C58.5735717,163.184566 59.208982,162.648439 59.6855469,162.410156 C60.122398,162.211588 60.7975215,162.112305 61.7109375,162.112305 Z M92.5683594,175.277344 C94.0377678,175.277344 95.1695924,174.999352 95.9638672,174.443359 C96.758142,173.927081 97.2942694,173.053392 97.5722656,171.822266 C97.7311206,171.22656 97.8105469,170.611006 97.8105469,169.975586 C97.8105469,169.340166 97.7311206,168.704756 97.5722656,168.069336 C97.2545557,166.758783 96.6985717,165.825524 95.9042969,165.269531 C95.1894496,164.753253 94.4348998,164.495117 93.640625,164.495117 C93.4420563,164.495117 93.2434906,164.514974 93.0449219,164.554688 C91.9726509,164.713542 91.1188183,165.229813 90.4833984,166.103516 C89.1331313,167.890634 88.4580078,169.578443 88.4580078,171.166992 C88.4580078,171.524416 88.4778644,171.881834 88.5175781,172.239258 C88.7161468,173.351243 89.1132783,174.145505 89.7089844,174.62207 C90.3046905,175.058921 91.2578059,175.277344 92.5683594,175.277344 Z M89.7685547,162.052734 C90.642257,161.377601 91.3570936,160.980469 91.9130859,160.861328 C92.1116546,160.821614 92.3896467,160.801758 92.7470703,160.801758 C93.1839215,160.801758 93.7200489,160.841471 94.3554688,160.920898 C96.8971481,161.238608 98.8629488,162.410146 100.25293,164.435547 C101.245773,165.904955 101.742188,167.692047 101.742188,169.796875 C101.742188,170.114585 101.722331,170.452147 101.682617,170.80957 C101.484048,173.390963 100.689786,175.416334 99.2998047,176.885742 C98.2672474,177.958013 96.897144,178.712563 95.1894531,179.149414 C94.3157508,179.347983 93.4420617,179.447266 92.5683594,179.447266 C91.7740846,179.447266 90.9996783,179.347983 90.2451172,179.149414 C87.8622928,178.513994 86.1744841,177.124034 85.1816406,174.979492 C84.7050757,173.827794 84.4469403,172.636399 84.4072266,171.405273 C84.4072266,170.333002 84.6057923,169.221034 85.0029297,168.069336 C85.8369182,165.56737 87.425444,163.561857 89.7685547,162.052734 Z M106.09082,169.022461 C106.09082,166.67935 106.170247,165.031255 106.329102,164.078125 C106.52767,163.164709 106.865232,162.608725 107.341797,162.410156 C107.699221,162.291015 108.016926,162.291015 108.294922,162.410156 C108.533204,162.569011 108.73177,162.886716 108.890625,163.363281 C109.089194,163.839846 109.248046,164.495113 109.367188,165.329102 C109.446615,166.16309 109.526041,167.235345 109.605469,168.545898 C109.923179,175.138379 110.975577,178.43457 112.762695,178.43457 C113.199546,178.43457 113.676104,178.275718 114.192383,177.958008 C114.986658,177.481443 115.721351,176.707037 116.396484,175.634766 C116.833336,174.959632 117.091471,174.165369 117.170898,173.251953 C117.250326,172.378251 117.250326,170.650729 117.170898,168.069336 C117.051757,164.097962 117.15104,161.933596 117.46875,161.576172 C117.78646,161.298176 118.104165,161.15918 118.421875,161.15918 C118.89844,161.15918 119.414711,161.476885 119.970703,162.112305 C120.645837,162.827152 121.042968,164.931949 121.162109,168.426758 C121.201823,169.141605 121.22168,169.816729 121.22168,170.452148 C121.22168,172.9144 120.983401,174.741205 120.506836,175.932617 C119.633134,178.1963 118.302743,179.923822 116.515625,181.115234 C115.324213,181.869795 114.112962,182.24707 112.881836,182.24707 C112.325844,182.24707 111.750003,182.147787 111.154297,181.949219 C109.406892,181.393226 108.116215,180.082693 107.282227,178.017578 C106.487952,175.952464 106.09082,172.954121 106.09082,169.022461 Z M139.390625,165.150391 C139.390625,166.42123 138.119804,166.639653 135.578125,165.805664 C133.155587,165.011389 131.428065,165.289381 130.395508,166.639648 C129.402664,168.029629 128.945963,170.789693 129.025391,174.919922 C129.104818,178.375017 128.985679,180.201822 128.667969,180.400391 C128.4694,180.519532 128.211265,180.579102 127.893555,180.579102 C127.615559,180.579102 127.297853,180.519532 126.94043,180.400391 C126.185869,180.201822 125.729167,179.884117 125.570312,179.447266 C125.371744,178.891273 125.173178,176.07164 124.974609,170.988281 C124.855468,168.406888 124.795898,166.520514 124.795898,165.329102 L124.795898,164.316406 C124.875326,163.442704 125.093748,162.926433 125.451172,162.767578 C125.96745,162.569009 126.543291,162.727862 127.178711,163.244141 C127.734703,163.720706 128.151691,163.819988 128.429688,163.541992 C128.747397,163.224282 129.402664,162.847007 130.395508,162.410156 C131.308924,161.933591 132.281896,161.695312 133.314453,161.695312 C134.148442,161.695312 135.041987,161.854165 135.995117,162.171875 C138.2588,162.926436 139.390625,163.919265 139.390625,165.150391 Z"/>
    <path fill="#FFF" d="M16.56,203 L15.44,203 L15.44,200.37 L13.12,196.02 L14.37,196.02 L15.26,197.76 L15.98,199.25 L16.04,199.25 L16.77,197.76 L17.66,196.02 L18.88,196.02 L16.56,200.37 L16.56,203 Z M22,203.12 C20.48,203.12 19.55,202.07 19.55,200.42 C19.55,198.77 20.48,197.72 22,197.72 C23.52,197.72 24.45,198.77 24.45,200.42 C24.45,202.07 23.52,203.12 22,203.12 Z M22,202.26 C22.79,202.26 23.31,201.77 23.31,200.81 L23.31,200.03 C23.31,199.07 22.79,198.58 22,198.58 C21.21,198.58 20.69,199.07 20.69,200.03 L20.69,200.81 C20.69,201.77 21.21,202.26 22,202.26 Z M29.07,203 L29.07,202.12 L29.02,202.12 C28.8,202.66 28.38,203.12 27.53,203.12 C26.49,203.12 25.79,202.41 25.79,201.16 L25.79,197.84 L26.88,197.84 L26.88,201 C26.88,201.82 27.25,202.23 27.95,202.23 C28.51,202.23 29.07,201.94 29.07,201.34 L29.07,197.84 L30.16,197.84 L30.16,203 L29.07,203 Z M31.76,203 L31.76,202.12 L33.13,202.12 L33.13,198.72 L31.76,198.72 L31.76,197.84 L34.22,197.84 L34.22,198.94 L34.28,198.94 C34.49,198.37 34.98,197.84 35.87,197.84 L36.6,197.84 L36.6,198.88 L35.52,198.88 C34.72,198.88 34.22,199.21 34.22,199.74 L34.22,202.12 L36.09,202.12 L36.09,203 L31.76,203 Z M43.75,203 L43.75,202.12 L45.46,202.12 L45.46,196.48 L43.75,196.48 L43.75,195.6 L46.55,195.6 L46.55,202.12 L48.26,202.12 L48.26,203 L43.75,203 Z M52,203.12 C50.48,203.12 49.55,202.07 49.55,200.42 C49.55,198.77 50.48,197.72 52,197.72 C53.52,197.72 54.45,198.77 54.45,200.42 C54.45,202.07 53.52,203.12 52,203.12 Z M52,202.26 C52.79,202.26 53.31,201.77 53.31,200.81 L53.31,200.03 C53.31,199.07 52.79,198.58 52,198.58 C51.21,198.58 50.69,199.07 50.69,200.03 L50.69,200.81 C50.69,201.77 51.21,202.26 52,202.26 Z M58.67,203 L57.33,203 L55.48,197.84 L56.61,197.84 L57.32,200.02 L57.99,202.09 L58.05,202.09 L58.72,200.02 L59.43,197.84 L60.52,197.84 L58.67,203 Z M64.11,203.12 C62.53,203.12 61.6,202.07 61.6,200.43 C61.6,198.77 62.56,197.72 64.03,197.72 C65.48,197.72 66.4,198.76 66.4,200.28 L66.4,200.69 L62.7,200.69 L62.7,200.86 C62.7,201.67 63.24,202.24 64.13,202.24 C64.79,202.24 65.27,201.93 65.56,201.45 L66.24,202.05 C65.89,202.65 65.17,203.12 64.11,203.12 Z M64.03,198.55 C63.25,198.55 62.7,199.12 62.7,199.92 L62.7,199.99 L65.29,199.99 L65.29,199.89 C65.29,199.08 64.79,198.55 64.03,198.55 Z M76.19,203.12 C74.65,203.12 73.74,202.07 73.74,200.42 C73.74,198.77 74.66,197.72 76.18,197.72 C77.24,197.72 77.87,198.22 78.19,198.94 L77.34,199.4 C77.16,198.92 76.78,198.62 76.18,198.62 C75.36,198.62 74.88,199.17 74.88,199.99 L74.88,200.85 C74.88,201.66 75.35,202.22 76.2,202.22 C76.84,202.22 77.23,201.9 77.47,201.4 L78.27,201.89 C77.94,202.61 77.27,203.12 76.19,203.12 Z M84.59,203 L83.92,203 C83.3,203 82.99,202.65 82.93,202.13 L82.88,202.13 C82.68,202.75 82.14,203.12 81.33,203.12 C80.28,203.12 79.6,202.53 79.6,201.56 C79.6,200.56 80.33,200.02 81.86,200.02 L82.85,200.02 L82.85,199.62 C82.85,198.93 82.48,198.57 81.74,198.57 C81.08,198.57 80.69,198.85 80.41,199.28 L79.76,198.75 C80.05,198.19 80.75,197.72 81.84,197.72 C83.14,197.72 83.94,198.37 83.94,199.55 L83.94,202.14 L84.59,202.14 L84.59,203 Z M81.64,202.32 C82.34,202.32 82.85,201.97 82.85,201.46 L82.85,200.71 L81.88,200.71 C81.08,200.71 80.7,200.96 80.7,201.42 L80.7,201.62 C80.7,202.08 81.06,202.32 81.64,202.32 Z M85.75,203 L85.75,202.12 L87.46,202.12 L87.46,196.48 L85.75,196.48 L85.75,195.6 L88.55,195.6 L88.55,202.12 L90.26,202.12 L90.26,203 L85.75,203 Z M94.19,203.12 C92.65,203.12 91.74,202.07 91.74,200.42 C91.74,198.77 92.66,197.72 94.18,197.72 C95.24,197.72 95.87,198.22 96.19,198.94 L95.34,199.4 C95.16,198.92 94.78,198.62 94.18,198.62 C93.36,198.62 92.88,199.17 92.88,199.99 L92.88,200.85 C92.88,201.66 93.35,202.22 94.2,202.22 C94.84,202.22 95.23,201.9 95.47,201.4 L96.27,201.89 C95.94,202.61 95.27,203.12 94.19,203.12 Z M101.07,203 L101.07,202.12 L101.02,202.12 C100.8,202.66 100.38,203.12 99.53,203.12 C98.49,203.12 97.79,202.41 97.79,201.16 L97.79,197.84 L98.88,197.84 L98.88,201 C98.88,201.82 99.25,202.23 99.95,202.23 C100.51,202.23 101.07,201.94 101.07,201.34 L101.07,197.84 L102.16,197.84 L102.16,203 L101.07,203 Z M103.75,203 L103.75,202.12 L105.46,202.12 L105.46,196.48 L103.75,196.48 L103.75,195.6 L106.55,195.6 L106.55,202.12 L108.26,202.12 L108.26,203 L103.75,203 Z M114.59,203 L113.92,203 C113.3,203 112.99,202.65 112.93,202.13 L112.88,202.13 C112.68,202.75 112.14,203.12 111.33,203.12 C110.28,203.12 109.6,202.53 109.6,201.56 C109.6,200.56 110.33,200.02 111.86,200.02 L112.85,200.02 L112.85,199.62 C112.85,198.93 112.48,198.57 111.74,198.57 C111.08,198.57 110.69,198.85 110.41,199.28 L109.76,198.75 C110.05,198.19 110.75,197.72 111.84,197.72 C113.14,197.72 113.94,198.37 113.94,199.55 L113.94,202.14 L114.59,202.14 L114.59,203 Z M111.64,202.32 C112.34,202.32 112.85,201.97 112.85,201.46 L112.85,200.71 L111.88,200.71 C111.08,200.71 110.7,200.96 110.7,201.42 L110.7,201.62 C110.7,202.08 111.06,202.32 111.64,202.32 Z M120.28,203 L118.31,203 C117.41,203 116.99,202.46 116.99,201.69 L116.99,198.72 L115.4,198.72 L115.4,197.84 L116.53,197.84 C116.91,197.84 117.06,197.71 117.06,197.31 L117.06,196.02 L118.08,196.02 L118.08,197.84 L120.28,197.84 L120.28,198.72 L118.08,198.72 L118.08,202.12 L120.28,202.12 L120.28,203 Z M124,203.12 C122.48,203.12 121.55,202.07 121.55,200.42 C121.55,198.77 122.48,197.72 124,197.72 C125.52,197.72 126.45,198.77 126.45,200.42 C126.45,202.07 125.52,203.12 124,203.12 Z M124,202.26 C124.79,202.26 125.31,201.77 125.31,200.81 L125.31,200.03 C125.31,199.07 124.79,198.58 124,198.58 C123.21,198.58 122.69,199.07 122.69,200.03 L122.69,200.81 C122.69,201.77 123.21,202.26 124,202.26 Z M127.76,203 L127.76,202.12 L129.13,202.12 L129.13,198.72 L127.76,198.72 L127.76,197.84 L130.22,197.84 L130.22,198.94 L130.28,198.94 C130.49,198.37 130.98,197.84 131.87,197.84 L132.6,197.84 L132.6,198.88 L131.52,198.88 C130.72,198.88 130.22,199.21 130.22,199.74 L130.22,202.12 L132.09,202.12 L132.09,203 L127.76,203 Z" opacity=".272"/>
  </g>
</svg>
