<svg xmlns="http://www.w3.org/2000/svg" xmlns:xlink="http://www.w3.org/1999/xlink" width="115" height="129" viewBox="0 0 115 129">
  <defs>
    <linearGradient id="svg_calculator-c" x1="94.685%" x2="2.641%" y1="-39.352%" y2="135.731%">
      <stop offset="0%" stop-color="#F05746"/>
      <stop offset="100%" stop-color="#EC1233"/>
    </linearGradient>
    <path id="svg_calculator-b" d="M0.497150439,7.34509931 L0.480699465,7.36176104 C0.479325159,7.35494579 0.477943635,7.34804705 0.476555382,7.34106564 C0.455954117,7.3370066 0.435965126,7.33299511 0.416606203,7.3290421 L0.464774665,7.28064373 C0.238047946,6.09497779 -0.125229779,2.86788362 1.3459585,1.01428708 C2.43554396,-0.130875752 4.23015529,0.0654378759 4.77494802,1.24331964 C5.1827771,2.12507598 4.81837983,2.84181273 4.60938057,3.14646424 C4.90777212,2.93308038 5.60978141,2.56103842 6.47341946,2.97742335 C7.62709818,3.5336453 7.78733133,5.39862476 6.66569925,6.47834971 C4.81835094,7.94887137 1.68612886,7.5765854 0.497150439,7.34509931 Z"/>
    <filter id="svg_calculator-a" width="295.1%" height="291.4%" x="-97.6%" y="-68.4%" filterUnits="objectBoundingBox">
      <feOffset dy="2" in="SourceAlpha" result="shadowOffsetOuter1"/>
      <feGaussianBlur in="shadowOffsetOuter1" result="shadowBlurOuter1" stdDeviation="2"/>
      <feColorMatrix in="shadowBlurOuter1" values="0 0 0 0 0.226589073   0 0 0 0 0.226589073   0 0 0 0 0.226589073  0 0 0 0.5 0"/>
    </filter>
    <path id="svg_calculator-e" d="M0.322462772,3.6524185 C0.549811478,2.9294139 1.2833529,0.904447354 2.71158198,0.259357435 C3.66861092,-0.0648393587 4.65754082,0.615973908 4.62563985,1.45888557 C4.59816421,2.1848679 4.05007622,2.47796856 3.8985426,2.54531645 C4.09863857,2.50850197 4.68128011,2.45876743 5.07225335,3.01503018 C5.58266879,3.69584345 5.13605528,4.79811255 4.14712538,5.08988966 C2.61587909,5.38166677 0.861326041,4.14971896 0.28710868,3.66342377 L0.322462772,3.6524185 Z"/>
    <filter id="svg_calculator-d" width="380.1%" height="382.4%" x="-140.1%" y="-100.9%" filterUnits="objectBoundingBox">
      <feOffset dy="2" in="SourceAlpha" result="shadowOffsetOuter1"/>
      <feGaussianBlur in="shadowOffsetOuter1" result="shadowBlurOuter1" stdDeviation="2"/>
      <feColorMatrix in="shadowBlurOuter1" values="0 0 0 0 0.226589073   0 0 0 0 0.226589073   0 0 0 0 0.226589073  0 0 0 0.5 0"/>
    </filter>
    <filter id="svg_calculator-f" width="122.2%" height="120.3%" x="-12.5%" y="-8.1%" filterUnits="objectBoundingBox">
      <feOffset dy="2" in="SourceAlpha" result="shadowOffsetOuter1"/>
      <feGaussianBlur in="shadowOffsetOuter1" result="shadowBlurOuter1" stdDeviation="2"/>
      <feColorMatrix in="shadowBlurOuter1" result="shadowMatrixOuter1" values="0 0 0 0 0.226589073   0 0 0 0 0.226589073   0 0 0 0 0.226589073  0 0 0 0.5 0"/>
      <feMerge>
        <feMergeNode in="shadowMatrixOuter1"/>
        <feMergeNode in="SourceGraphic"/>
      </feMerge>
    </filter>
    <path id="svg_calculator-h" d="M2.9491626,3.22464467 C2.71444007,2.94111797 2.29035027,2.26737273 2.63074696,1.39380164 C3.08544396,0.226897942 4.87175363,-0.0972419751 6.0409745,0.940005759 C7.63864994,2.66207565 7.47584545,5.85876298 7.34644992,7.0111359 L7.37258716,7.0338362 C7.36287859,7.03640102 7.35300936,7.0389934 7.34298169,7.04161175 C7.34202105,7.04994079 7.34106317,7.05815409 7.3401088,7.06625019 L7.31893563,7.0478612 C6.16846692,7.34547168 3.05427373,7.95293299 1.10426416,6.6448683 C-0.0974350725,5.64003456 -0.0324783575,3.82485102 1.0717858,3.20898518 C1.89622465,2.72498225 2.63014549,3.03595922 2.9491626,3.22464467 Z"/>
    <filter id="svg_calculator-g" width="294.4%" height="296.2%" x="-97.2%" y="-70.1%" filterUnits="objectBoundingBox">
      <feOffset dy="2" in="SourceAlpha" result="shadowOffsetOuter1"/>
      <feGaussianBlur in="shadowOffsetOuter1" result="shadowBlurOuter1" stdDeviation="2"/>
      <feColorMatrix in="shadowBlurOuter1" values="0 0 0 0 0.226589073   0 0 0 0 0.226589073   0 0 0 0 0.226589073  0 0 0 0.5 0"/>
    </filter>
    <path id="svg_calculator-j" d="M4.39363793,3.34435781 C4.22378842,2.92873579 3.93572503,1.89537041 4.7418402,0.940005759 C5.78114764,-0.291725925 8.08711102,5.85642645e-15 9.0939401,1.71794156 C10.3309054,4.44020301 8.93511416,8.24439228 8.29429536,9.65893119 L8.31445952,9.69178352 C8.30316005,9.69128231 8.29169751,9.69075592 8.28007422,9.69020366 C8.26966521,9.71300559 8.25946963,9.73514677 8.24950281,9.7566115 L8.20706006,9.68650066 C6.65745169,9.60306822 2.618994,9.08442444 0.77948058,6.74211027 C-0.324783575,5.0565827 0.487175363,2.85243127 2.07861488,2.52829135 C3.32098193,2.27524953 4.10810788,3.00990098 4.39363793,3.34435781 Z"/>
    <filter id="svg_calculator-i" width="250.3%" height="246.3%" x="-75.1%" y="-52.2%" filterUnits="objectBoundingBox">
      <feOffset dy="2" in="SourceAlpha" result="shadowOffsetOuter1"/>
      <feGaussianBlur in="shadowOffsetOuter1" result="shadowBlurOuter1" stdDeviation="2"/>
      <feColorMatrix in="shadowBlurOuter1" values="0 0 0 0 0.226589073   0 0 0 0 0.226589073   0 0 0 0 0.226589073  0 0 0 0.5 0"/>
    </filter>
    <path id="svg_calculator-l" d="M3.57233479,2.55991155 C3.56064205,2.52701784 3.19722997,1.4787672 4.09227305,0.713107817 C5.00166706,-0.0648279834 6.62558493,0.453795884 7.14523865,1.81518353 C7.72984909,3.98692098 6.13840957,6.6448683 5.55379913,7.52004607 C4.51449169,7.26073414 1.55896116,6.41797036 0.487175363,4.44071686 C-0.0974350725,3.07932921 0.747002223,1.58828559 1.94870145,1.5558716 C3.09965325,1.52396408 3.5582356,2.5285525 3.57228531,2.55995368 Z"/>
    <filter id="svg_calculator-k" width="300.7%" height="295.2%" x="-100.4%" y="-69.7%" filterUnits="objectBoundingBox">
      <feOffset dy="2" in="SourceAlpha" result="shadowOffsetOuter1"/>
      <feGaussianBlur in="shadowOffsetOuter1" result="shadowBlurOuter1" stdDeviation="2"/>
      <feColorMatrix in="shadowBlurOuter1" values="0 0 0 0 0.127232143   0 0 0 0 0.123888685   0 0 0 0 0.123888685  0 0 0 0.657240716 0"/>
    </filter>
    <radialGradient id="svg_calculator-m" cx="49.658%" cy="49.799%" r="39.298%" fx="49.658%" fy="49.799%" gradientTransform="matrix(1 0 0 .23612 0 .38)">
      <stop offset="0%"/>
      <stop offset="90.17%"/>
    </radialGradient>
    <linearGradient id="svg_calculator-n" x1="-6.957%" x2="93.583%" y1="46.53%" y2="54.919%">
      <stop offset="16.43%" stop-color="#F5A0C5"/>
      <stop offset="96.08%" stop-color="#EFB9D1"/>
    </linearGradient>
    <path id="svg_calculator-p" d="M1.81848247,1.21715823 C1.83079206,1.04072235 1.90842838,0.696252492 2.30596338,0.486209875 C2.8256171,0.226897942 3.57261933,0.680693826 3.63757604,1.39380164 C3.63757604,2.50583049 2.60780902,3.55557289 2.16939959,3.93249608 L2.17604995,3.98692098 C1.68887459,3.76002304 0.357261933,2.98208724 0.0974350725,1.88001152 C-1.40859546e-14,1.13448971 0.584610435,0.518623867 1.16922087,0.648279834 C1.58717428,0.740974302 1.75612276,1.04904535 1.81848247,1.21715823 Z"/>
    <filter id="svg_calculator-o" width="494.3%" height="491.7%" x="-197.1%" y="-139.9%" filterUnits="objectBoundingBox">
      <feOffset dy="2" in="SourceAlpha" result="shadowOffsetOuter1"/>
      <feGaussianBlur in="shadowOffsetOuter1" result="shadowBlurOuter1" stdDeviation="2"/>
      <feColorMatrix in="shadowBlurOuter1" values="0 0 0 0 0.226589073   0 0 0 0 0.226589073   0 0 0 0 0.226589073  0 0 0 0.5 0"/>
    </filter>
    <linearGradient id="svg_calculator-q" x1="43.821%" x2="66.686%" y1="91.217%" y2="-3.717%">
      <stop offset="0%" stop-color="#FFF"/>
      <stop offset="44.25%" stop-color="#F5F5F6"/>
      <stop offset="100%" stop-color="#E6E7E8"/>
    </linearGradient>
  </defs>
  <g fill="none" fill-rule="evenodd">
    <g fill-rule="nonzero">
      <path fill="#292B37" d="M30.9009932,102.537797 C28.6597451,102.097907 1.70192872,98.1580218 3.6813488,69.0774586 C5.66076889,39.9968954 8.15337195,31.2564697 18.6369672,28.052922 C29.1205624,24.8493742 54.5911954,9.71141582 74.5843856,24.1130364 C94.5775757,38.5146569 116.152207,51.4149133 107.585193,74.4039544 C99.0181795,97.3929954 97.6252542,105.052822 75.2860847,103.886156 C52.9573884,102.709928 41.5731046,104.612931 30.9009932,102.537797 Z"/>
      <g transform="translate(97.957 15.485)">
        <use fill="#000" filter="url(#svg_calculator-a)" xlink:href="#svg_calculator-b"/>
        <use fill="url(#svg_calculator-c)" fill-rule="evenodd" xlink:href="#svg_calculator-b"/>
      </g>
      <g transform="translate(99.805 36.38)">
        <use fill="#000" filter="url(#svg_calculator-d)" xlink:href="#svg_calculator-e"/>
        <use fill="url(#svg_calculator-c)" fill-rule="evenodd" xlink:href="#svg_calculator-e"/>
      </g>
      <path fill="#82BEE0" d="M34.2189754,23.0852084 C34.2189754,23.0852084 44.9448095,22.4717553 47.3103258,18.9524718 C49.6758421,15.4331883 51.1988458,4.55246767 51.1988458,4.55246767 C51.1988458,4.55246767 53.5967664,8.52376926 51.8469324,19.4044899 C50.1295028,30.2852105 36.908535,29.6394704 35.9040007,28.8645823 C34.8994664,28.0896941 32.5663544,24.9578547 34.2189754,23.0852084 Z"/>
      <path fill="#414453" d="M36.033618,10.1381195 C36.033618,10.1381195 31.0109465,6.42511395 28.2565782,11.6556087 C25.5022099,16.8861035 11.7303685,13.302246 8.10108319,10.9452946 C7.84184853,11.7524697 7.6150182,12.5919319 7.45299654,13.431394 C7.38818787,13.754264 9.55927817,14.4000041 9.52687383,14.6905872 C9.46206517,15.0134572 7.16135754,14.9811702 7.09654888,15.3040403 C6.93452721,16.2403634 6.83731421,17.1766865 6.77250555,18.0807227 C6.74010122,18.3390187 13.2209678,18.5327407 13.2209678,18.7910368 C13.2209678,18.9524718 6.70769688,19.1461938 6.70769688,19.3399159 C6.44846222,24.4735496 7.19376187,28.4448512 7.19376187,28.4448512 C7.19376187,28.4448512 16.5262097,30.9632376 36.811322,17.9192876 C37.3297913,16.1435024 37.3946,12.5596449 36.033618,10.1381195 Z"/>
      <path fill="#F7D5CB" d="M51.4580804,4.26188463 C51.4580804,4.26188463 51.8145281,0.968610143 53.7263837,0.258296038 C56.0270914,1.19461918 53.3051274,2.6798214 51.4580804,4.26188463 Z"/>
      <path fill="#F6F9FA" d="M21.6460943,45.9766948 C21.6460943,45.9766948 29.7147731,46.7838699 31.6590331,49.8511354 C34.6726361,48.1722111 40.2785856,47.397323 40.2785856,47.397323 C40.2785856,47.397323 42.8061236,68.4161631 30.5248815,95.8601171 C31.7238418,83.3973333 33.4412714,62.6367892 28.8722605,58.2134696 C19.8314517,75.2610081 9.04080884,75.7130262 1.62021664,69.4493472 C19.6046213,76.3910533 21.6460943,45.9766948 21.6460943,45.9766948 Z"/>
      <path fill="#B0E2F7" d="M30.3952641,24.3121146 C30.3952641,24.3121146 22.9098633,27.5085281 19.377791,55.8242312 C25.6966359,59.9569678 41.2507156,57.9228865 41.2507156,57.9228865 C41.2507156,57.9228865 44.8151922,24.8932807 35.547553,23.3757914 C32.9552064,23.1174954 30.3952641,24.3121146 30.3952641,24.3121146 Z"/>
      <path fill="#FFF" d="M31.2701811 93.8260358C31.2701811 93.8260358 32.2423111 94.0197579 33.6032931 95.7632561 34.9642751 97.4744674 34.2189754 97.6036154 34.2189754 97.6036154L29.8119861 95.6986821C29.8119861 95.6986821 30.2656468 93.2448698 31.2701811 93.8260358zM1.26376898 69.0941902C1.26376898 69.0941902.550873657 69.7722173.259234662 71.9354466 1.88737914e-15 74.0986759.680490988 73.8403799.680490988 73.8403799L3.46726361 69.9336523C3.49966794 69.9013653 1.84704697 68.061006 1.26376898 69.0941902z"/>
      <ellipse cx="32.794" cy="15.921" fill="#F4C4B4" rx="4.245" ry="6.554" transform="rotate(-6.344 32.794 15.921)"/>
      <path fill="#F4C4B4" d="M36.228044,23.4403655 C36.5520874,24.4089756 31.8210548,25.9587518 31.0757551,24.0215315 C30.9785421,23.0529214 31.1405638,18.5973147 31.1405638,18.5973147 L34.9318707,18.1775837 C34.9642751,18.1452967 35.9040007,22.4717553 36.228044,23.4403655 Z"/>
      <path fill="#414453" d="M35.45034,10.7515726 C35.45034,10.7515726 31.1729681,14.9165962 26.8631919,12.9470889 C28.2565782,12.7210799 28.6130258,12.1722008 29.0018778,11.4618867 C29.4231342,10.7515726 31.7238418,7.10314105 35.45034,10.7515726 Z"/>
      <path fill="#82BEE0" d="M36.130831,30.8986636 C36.130831,30.8986636 26.5067442,47.461897 10.0129388,49.0439602 C18.1464263,43.6520304 24.5624842,38.1955266 27.4464699,29.6394704 C29.6499645,25.9587518 31.6914374,24.9578547 34.1865711,26.0233258 C36.9733437,27.9928331 36.130831,30.8986636 36.130831,30.8986636 Z"/>
      <path fill="#F4C4B4" d="M9.88332149,49.1731083 C9.88332149,49.1731083 7.58261387,46.7838699 5.6383539,47.397323 C4.37458492,49.5282653 7.45299654,49.0439602 9.88332149,49.1731083 Z"/>
      <g filter="url(#svg_calculator-f)" transform="translate(39.121 20.45)">
        <g transform="translate(16.889 14.91)">
          <path fill="#E5A38C" d="M3.31279247,12.4469728 C3.31279247,12.4469728 0.38974029,11.4097251 0.12991343,9.52971356 C1.49400445,7.64970204 2.24100667,10.4373053 3.31279247,12.4469728 Z"/>
          <path fill="#E5A38C" d="M17.7331832,4.47313085 C17.7331832,4.47313085 13.9981721,8.94626171 12.2443408,14.1649144 C11.9845139,15.3318181 4.67688348,13.6462905 3.11792232,12.2200749 C2.89057382,12.8359407 7.01532522,17.1470016 12.0169923,19.9021909 C12.6665594,20.2587448 13.5109967,19.9994329 14.0956072,19.513223 C17.1485728,16.9201037 24.4562032,9.7566115 24.7485084,5.70486254 C24.9109002,3.1117432 17.7331832,4.47313085 17.7331832,4.47313085 Z"/>
          <path fill="#82BEE0" d="M14.9075661,7.94142797 C14.9075661,7.94142797 20.981019,10.9559292 21.6305861,11.831107 C22.2476749,12.7062847 25.6254241,5.31589464 25.5929457,4.01933497 C25.527989,2.7227753 22.442545,-1.9448395 19.3895794,1.62069958 C16.3041355,5.18623867 14.9075661,7.94142797 14.9075661,7.94142797 Z"/>
        </g>
        <path fill="#F4C4B4" d="M29.8476106 44.0506147L15.0050012 47.5513258C14.1930422 48.0051217 13.7058669 48.8478855 13.7383452 49.7878912 13.8357803 54.0017102 20.6887137 62.591418 24.8459435 72.2507875 26.1125994 60.0631266 21.3058025 53.7423982 21.3058025 53.7423982L32.705706 54.3906781C32.705706 54.3906781 33.3552732 43.2402649 29.8476106 44.0506147zM40.0133365 54.2610221L42.3517782 66.0921291C42.6765618 66.9673068 43.423564 67.5831727 44.332958 67.7128287 48.4901878 68.3286945 60.0200047 65.0548813 70.8677761 63.5962517 63.2353621 61.7486542 49.7568437 62.623832 49.7568437 62.623832L50.3739325 53.1589464C50.4064109 53.1589464 39.8184663 50.663069 40.0133365 54.2610221z"/>
        <path fill="#B0E2F7" d="M35.0441478,42.786469 C35.0441478,42.786469 38.0971134,39.22093 41.4423842,39.6747258 C43.8133043,36.8222946 51.2183698,39.05886 51.2183698,39.05886 C51.2183698,39.05886 52.9397227,39.9988658 50.7961511,55.6872377 L39.8509447,55.7196517 C39.2663342,54.0665381 39.2338559,53.9692962 39.1688992,53.8720542 C37.6748947,54.3258501 36.5381522,55.1037859 29.2954785,54.714818 L25.4630323,44.6340666 C32.3484441,42.2354312 35.0441478,42.786469 35.0441478,42.786469 Z"/>
        <path fill="#F6F9FA" d="M41.7346894,17.1470016 C41.7346894,17.1470016 49.23719,24.0835958 52.1602422,41.7168073 C45.7295274,45.1851044 32.4783575,43.8885448 32.4783575,43.8885448 C32.4783575,43.8885448 28.9382165,20.7773687 36.6031089,16.5635498 C39.2013775,16.2718238 41.7346894,17.1470016 41.7346894,17.1470016 Z"/>
        <path fill="#414453" d="M71.3874298 64.6983274C71.3874298 64.6983274 71.127603 66.1245431 69.3088149 66.9024789 65.6062822 66.9673068 68.2695075 66.0273011 68.2695075 66.0273011L69.6011201 63.1100418C69.6011201 63.1100418 71.9720402 63.5314237 71.3874298 64.6983274zM24.3912465 71.1162978C24.3912465 71.1162978 23.4168958 70.9542278 21.533151 72.1211315 19.6494063 73.2880352 20.2989734 73.6445891 20.2989734 73.6445891L25.1382487 73.3852772C25.1382487 73.3852772 25.5604674 70.9218138 24.3912465 71.1162978z"/>
        <ellipse cx="37.55" cy="8.365" fill="#F4C4B4" rx="4.612" ry="7.099" transform="rotate(-6.35 37.55 8.365)"/>
        <path fill="#F4C4B4" d="M41.150079,16.8876897 C41.4748625,17.8601094 36.700544,19.448395 35.9535418,17.4711415 C35.8561067,16.4987218 36.0184985,11.9931769 36.0184985,11.9931769 L39.8509447,11.571795 C39.883423,11.571795 40.8252954,15.9152699 41.150079,16.8876897 Z"/>
        <path fill="#414453" d="M34.3945806,1.5558716 C34.3945806,1.5558716 38.3894186,9.91868146 42.6440834,10.2752354 C44.5278281,10.8911012 46.1192677,9.88626747 46.1192677,9.88626747 C46.1192677,9.88626747 44.2030446,9.69178352 43.9107394,9.30281562 C43.5859558,8.88143372 43.9432177,5.67244855 41.8646028,3.43588312 C40.6629036,0.842763784 36.6031089,-0.324139917 35.4988448,0.615865842"/>
        <path fill="#414453" d="M35.2714963,1.88001152 C35.2714963,1.88001152 33.7450135,7.58487406 32.8680978,8.52487982 C31.9587038,9.49729957 31.7638336,2.13932345 34.7518425,1.1669037 C37.7398514,0.19448395 35.2714963,1.88001152 35.2714963,1.88001152 Z"/>
        <path fill="#82BEE0" d="M35.6612365,46.1899382 L39.1364208,53.8072262 C39.1688992,53.8396402 39.5261611,51.4085908 35.6612365,46.1899382 Z"/>
        <g transform="translate(0 1.62)">
          <g transform="translate(3.897 15.235)">
            <g transform="translate(0 .324)">
              <path fill="#A2C450" d="M0.25982686,0.259311934 C3.15040068,-0.129655967 12.2443408,5.12141069 12.2443408,5.12141069 C12.2443408,5.12141069 12.1793841,5.64003456 11.9845139,6.02900246 C9.38624532,4.44071686 3.50766261,0.907591767 0.25982686,0.259311934 Z"/>
              <path fill="#8FAA3D" d="M10.8477714,6.22348641 C9.74350725,5.18623867 4.77431855,2.23656543 0.227348503,0.259311934 C3.47518425,0.907591767 9.38624532,4.44071686 11.9520356,6.06141645 C11.7571654,6.45038435 11.3999035,6.74211027 10.8477714,6.22348641 Z"/>
            </g>
            <g transform="translate(6.17)">
              <path fill="#A2C450" d="M0.0974350725,0.129655967 C0.292305218,2.20415144 5.52132078,6.74211027 5.52132078,6.74211027 C5.52132078,6.74211027 5.87858271,6.54762632 6.13840957,6.28831439 C4.57944841,5.02416871 1.10426416,2.10690946 0.0974350725,0.129655967 Z"/>
              <path fill="#8FAA3D" d="M6.07345285,5.4779646 C5.16405884,5.0565827 2.24100667,2.59311934 0.0974350725,0.129655967 C1.10426416,2.13932345 4.57944841,5.02416871 6.13840957,6.28831439 C6.39823643,5.99658846 6.56062822,5.67244855 6.07345285,5.4779646 Z"/>
            </g>
          </g>
          <g transform="translate(13.966 1.297)">
            <g transform="translate(2.598)">
              <path fill="#A2C450" d="M1.00682908,0.259311934 C-0.941872368,3.889679 1.5264828,18.5083893 1.5264828,18.5083893 C1.5264828,18.5083893 2.24100667,18.6704592 2.85809546,18.6056312 C2.04613652,14.4242263 0.292305218,4.86209875 1.00682908,0.259311934 Z"/>
              <path fill="#8FAA3D" d="M3.6700544,17.2118296 C2.85809546,15.2345761 1.39656937,7.22832015 1.00682908,0.226897942 C0.25982686,4.86209875 2.01365817,14.3918123 2.89057382,18.5732172 C3.54014097,18.5408033 4.09227305,18.2166633 3.6700544,17.2118296 Z"/>
            </g>
            <g transform="translate(0 7.78)">
              <path fill="#A2C450" d="M0.0324783575,0.19448395 C2.69570367,1.49104362 6.10593121,10.6642033 6.10593121,10.6642033 C6.10593121,10.6642033 5.65123421,11.0207572 5.1965372,11.2476551 C4.31962155,8.55729381 2.17604995,2.52829135 0.0324783575,0.19448395 Z"/>
              <path fill="#8FAA3D" d="M4.15722976,10.7614452 C4.02731633,9.33522961 2.20852831,4.2786469 0.0324783575,0.19448395 C2.17604995,2.52829135 4.31962155,8.55729381 5.1965372,11.2476551 C4.70936184,11.4421391 4.22218648,11.4745531 4.15722976,10.7614452 Z"/>
            </g>
          </g>
          <g transform="translate(2.273 7.455)">
            <path fill="#1E2029" d="M10.360596,11.733865 C12.7315161,13.6787045 14.9725228,14.9104362 15.3297847,14.4890543 C15.6870467,14.0676724 14.0306504,12.1228329 11.6597303,10.1779934 C9.28881025,8.23315389 7.04780358,7.00142221 6.69054165,7.4228041 C6.33327971,7.84418599 7.98967595,9.78902549 10.360596,11.733865 Z"/>
            <g transform="translate(7.795 9.4)">
              <path fill="#A2C450" d="M0.0324783575,0.259311934 C1.75383131,0.162069958 6.85293344,3.69519505 6.85293344,3.69519505 C6.85293344,3.69519505 6.78797672,3.98692098 6.65806329,4.21381892 C5.22901556,3.14415719 1.91622309,0.810349792 0.0324783575,0.259311934 Z"/>
              <path fill="#8FAA3D" d="M6.00849614,4.2786469 C5.39140735,3.63036707 2.63074696,1.65311358 0.064956715,0.291725925 C1.94870145,0.842763784 5.26149392,3.17657119 6.69054165,4.24623291 C6.52814986,4.44071686 6.30080136,4.60278682 6.00849614,4.2786469 Z"/>
            </g>
            <path fill="#DEE899" d="M6.78797672,7.22832015 C6.78797672,7.22832015 9.19137518,8.62212179 14.1930422,13.6787045 C14.4853475,13.4842205 14.5827825,13.1924946 14.5827825,13.1924946 C14.5827825,13.1924946 7.40506551,7.19590616 7.37258716,6.15865842 C6.23584464,6.15865842 6.78797672,7.22832015 6.78797672,7.22832015 Z"/>
            <g transform="translate(11.367 9.4)">
              <path fill="#A2C450" d="M0.0324783575,0.291725925 C0.064956715,1.52345761 2.92305218,4.44071686 2.92305218,4.44071686 C2.92305218,4.44071686 3.15040068,4.34347489 3.31279247,4.21381892 C2.43587681,3.37105514 0.51965372,1.49104362 0.0324783575,0.291725925 Z"/>
              <path fill="#8FAA3D" d="M3.28031411,3.69519505 C2.76066039,3.40346913 1.16922087,1.81518353 0,0.259311934 C0.487175363,1.49104362 2.40339846,3.37105514 3.28031411,4.14899094 C3.4427059,4.01933497 3.57261933,3.85726501 3.28031411,3.69519505 Z"/>
            </g>
            <use fill="#000" filter="url(#svg_calculator-g)" xlink:href="#svg_calculator-h"/>
            <use fill="url(#svg_calculator-c)" fill-rule="evenodd" xlink:href="#svg_calculator-h"/>
          </g>
          <g transform="translate(0 4.214)">
            <path fill="#A2C450" d="M0.227348503,0.291725925 C5.58627749,1.10207572 18.9673608,15.1049201 18.9673608,15.1049201 C18.9673608,15.1049201 18.5776205,15.9800979 18.0254884,16.5959637 C14.3229557,12.4469728 5.68371256,3.14415719 0.227348503,0.291725925 Z"/>
            <path fill="#8FAA3D" d="M15.9793519,16.3366518 C14.5503042,13.9380164 7.27515208,6.15865842 0.227348503,0.291725925 C5.65123421,3.14415719 14.3229557,12.4469728 18.0254884,16.5959637 C17.4733563,17.2118296 16.6938758,17.5359695 15.9793519,16.3366518 Z"/>
            <g transform="translate(11.043 2.593)">
              <path fill="#A2C450" d="M0.12991343,0 C-0.584610435,3.79243703 6.36575807,14.5538823 6.36575807,14.5538823 C6.36575807,14.5538823 7.1127603,14.3918123 7.66489237,14.0352584 C5.55379913,11.0207572 0.876915653,4.05174896 0.12991343,0 Z"/>
              <path fill="#8FAA3D" d="M7.98967595,12.5766288 C6.59310657,11.3448971 2.69570367,5.4779646 0.12991343,0 C0.876915653,4.05174896 5.55379913,11.0207572 7.66489237,14.0352584 C8.24950281,13.6787045 8.67172146,13.1924946 7.98967595,12.5766288 Z"/>
            </g>
          </g>
          <g transform="translate(3.248)">
            <path fill="#1E2029" d="M10.0358125,16.6283777 C12.1793841,19.9670189 14.4203907,22.3332403 15.0050012,21.9442724 C15.62209,21.5553045 14.3879124,18.5408033 12.2443408,15.2021621 C10.1007692,11.863521 7.85976252,9.49729957 7.27515208,9.88626747 C6.65806329,10.2752354 7.89224088,13.3221506 10.0358125,16.6283777 Z"/>
            <g transform="translate(7.47 12.966)">
              <path fill="#A2C450" d="M0.292305218,0.162069958 C2.43587681,0.745521809 7.27515208,7.06625019 7.27515208,7.06625019 C7.27515208,7.06625019 7.08028194,7.4228041 6.82045508,7.61728805 C5.48884242,5.73727653 2.3709201,1.5558716 0.292305218,0.162069958 Z"/>
              <path fill="#8FAA3D" d="M6.00849614,7.39039011 C5.52132078,6.35314237 2.92305218,2.85243127 0.292305218,0.129655967 C2.3709201,1.52345761 5.48884242,5.70486254 6.82045508,7.58487406 C6.56062822,7.84418599 6.23584464,7.94142797 6.00849614,7.39039011 Z"/>
            </g>
            <path fill="#DEE899" d="M7.43754387,9.72419751 C7.43754387,9.72419751 9.84094233,12.4145588 13.9332154,20.5504707 C14.355434,20.4532288 14.6152609,20.1290888 14.6152609,20.1290888 C14.6152609,20.1290888 8.21702445,9.95109545 8.57428638,8.65453578 C7.21019537,8.16832591 7.43754387,9.72419751 7.43754387,9.72419751 Z"/>
            <g transform="translate(12.017 14.262)">
              <path fill="#A2C450" d="M0.0974350725,0.259311934 C-0.357261933,1.78276954 1.98117981,6.48279834 1.98117981,6.48279834 C1.98117981,6.48279834 2.27348503,6.45038435 2.53331189,6.32072838 C1.81878802,5.02416871 0.227348503,1.97725349 0.0974350725,0.259311934 Z"/>
              <path fill="#8FAA3D" d="M2.72818203,5.76969052 C2.20852831,5.18623867 0.876915653,2.62553333 0.0974350725,0.291725925 C0.227348503,1.97725349 1.81878802,5.02416871 2.53331189,6.35314237 C2.79313875,6.22348641 2.98800889,6.06141645 2.72818203,5.76969052 Z"/>
            </g>
            <use fill="#000" filter="url(#svg_calculator-i)" xlink:href="#svg_calculator-j"/>
            <use fill="url(#svg_calculator-c)" fill-rule="evenodd" xlink:href="#svg_calculator-j"/>
          </g>
          <g transform="translate(10.068 3.566)">
            <path fill="#1E2029" d="M5.97601778,12.7062847 C7.1127603,15.3966461 8.4118946,17.3738995 8.89906996,17.1794156 C9.38624532,16.9849316 8.8665916,14.6511242 7.72984909,11.9607629 C6.59310657,9.27040163 5.29397227,7.29314813 4.80679691,7.48763208 C4.31962155,7.71453002 4.83927527,10.0483374 5.97601778,12.7062847 Z"/>
            <g transform="translate(4.547 9.724)">
              <path fill="#A2C450" d="M0.227348503,0.162069958 C1.72135295,0.842763784 4.41705662,5.99658846 4.41705662,5.99658846 C4.41705662,5.99658846 4.22218648,6.22348641 4.02731633,6.35314237 C3.28031411,4.86209875 1.55896116,1.42621563 0.227348503,0.162069958 Z"/>
              <path fill="#8FAA3D" d="M3.4427059,6.12624443 C3.21535739,5.31589464 1.75383131,2.46346337 0.227348503,0.162069958 C1.55896116,1.42621563 3.28031411,4.86209875 4.02731633,6.35314237 C3.79996783,6.48279834 3.54014097,6.51521233 3.4427059,6.12624443 Z"/>
            </g>
            <path fill="#DEE899" d="M4.9691887,7.39039011 C4.9691887,7.39039011 6.36575807,9.62695553 8.31445952,16.0125119 C8.6392431,15.9800979 8.8665916,15.785614 8.8665916,15.785614 C8.8665916,15.785614 5.52132078,7.61728805 5.94353942,6.74211027 C4.9691887,6.2559004 4.9691887,7.39039011 4.9691887,7.39039011 Z"/>
            <g transform="translate(7.47 11.345)">
              <path fill="#A2C450" d="M0.25982686,0.0972419751 C-0.25982686,1.13448971 0.844437295,4.82968476 0.844437295,4.82968476 C0.844437295,4.82968476 1.0717858,4.82968476 1.26665594,4.79727077 C0.90939401,3.76002304 0.12991343,1.36138765 0.25982686,0.0972419751 Z"/>
              <path fill="#8FAA3D" d="M1.49400445,4.40830287 C1.20169923,3.922093 0.552132078,1.91242551 0.25982686,0.129655967 C0.12991343,1.36138765 0.90939401,3.76002304 1.26665594,4.82968476 C1.49400445,4.76485678 1.65639623,4.63520081 1.49400445,4.40830287 Z"/>
            </g>
            <use fill="#000" filter="url(#svg_calculator-k)" xlink:href="#svg_calculator-l"/>
            <use fill="url(#svg_calculator-c)" fill-rule="evenodd" xlink:href="#svg_calculator-l"/>
          </g>
          <g transform="translate(17.214 10.697)">
            <path fill="url(#svg_calculator-m)" d="M2.3709201,6.54762632 C2.5982686,7.97384196 2.98800889,9.10833167 3.24783575,9.07591767 C3.50766261,9.04350368 3.54014097,7.84418599 3.34527082,6.41797036 C3.11792232,4.99175472 2.72818203,3.85726501 2.46835517,3.889679 C2.20852831,3.922093 2.17604995,5.12141069 2.3709201,6.54762632 Z"/>
            <g transform="translate(1.949 4.862)">
              <path fill="#A2C450" d="M0.194870145,0.162069958 C0.811958938,0.680693826 1.49400445,3.5007111 1.49400445,3.5007111 C1.49400445,3.5007111 1.36409102,3.59795308 1.26665594,3.63036707 C1.10426416,2.82001728 0.682045508,0.940005759 0.194870145,0.162069958 Z"/>
              <path fill="#8FAA3D" d="M1.00682908,3.43588312 C1.00682908,3.01450123 0.64956715,1.45862963 0.194870145,0.162069958 C0.682045508,0.940005759 1.10426416,2.82001728 1.26665594,3.63036707 C1.13674251,3.66278106 1.00682908,3.66278106 1.00682908,3.43588312 Z"/>
            </g>
            <path fill="#DEE899" d="M2.53331189,3.82485102 C2.53331189,3.82485102 2.92305218,5.0889967 3.08544396,8.42763784 C3.24783575,8.46005183 3.37774918,8.39522385 3.37774918,8.39522385 C3.37774918,8.39522385 2.76066039,4.01933497 3.08544396,3.66278106 C2.69570367,3.27381316 2.53331189,3.82485102 2.53331189,3.82485102 Z"/>
            <g transform="translate(2.923 6.159)">
              <path fill="#A2C450" d="M0.454697005,0 C0.064956715,0.453795884 0.162391788,2.36622139 0.162391788,2.36622139 C0.162391788,2.36622139 0.25982686,2.39863539 0.357261933,2.39863539 C0.324783575,1.84759753 0.25982686,0.583451851 0.454697005,0 Z"/>
              <path fill="#8FAA3D" d="M0.51965372,2.23656543 C0.422218648,1.97725349 0.38974029,0.907591767 0.454697005,-2.84217094e-14 C0.227348503,0.583451851 0.324783575,1.84759753 0.357261933,2.39863539 C0.487175363,2.39863539 0.584610435,2.36622139 0.51965372,2.23656543 Z"/>
            </g>
            <g transform="translate(.65)">
              <path fill="url(#svg_calculator-n)" d="M1.81878802,1.32897366 C1.81878802,1.32897366 1.75383131,0.777935801 2.30596338,0.486209875 C2.8256171,0.226897942 3.57261933,0.680693826 3.63757604,1.39380164 C3.63757604,2.52829135 2.56579024,3.59795308 2.1435716,3.95450699"/>
              <use fill="#000" filter="url(#svg_calculator-o)" xlink:href="#svg_calculator-p"/>
              <use fill="url(#svg_calculator-c)" fill-rule="evenodd" xlink:href="#svg_calculator-p"/>
            </g>
          </g>
          <g transform="translate(10.718 14.91)">
            <path fill="url(#svg_calculator-q)" d="M0.324783575,5.0565827 C0.324783575,5.0565827 10.1007692,1.00483374 10.0682908,0.324139917 C10.0682908,-0.3889679 10.7828147,9.40005759 11.5622953,11.4097251 C12.3417759,13.4193926 10.1982043,12.9331827 10.1982043,12.9331827 C10.1982043,12.9331827 1.68887459,5.21865266 0.324783575,5.0565827 Z"/>
            <path fill="#FFF" d="M11.6922087,12.1552469 C11.6597303,12.2849029 11.627252,12.3821448 11.5298169,12.4793868 C10.9776848,13.1276666 10.2306826,12.9655967 10.1657259,12.9655967 C10.1007692,12.9007687 1.68887459,5.28348065 0.324783575,5.12141069 L0.194870145,5.12141069 L0.324783575,5.0565827 C4.18970812,3.46829711 9.9383774,0.907591767 10.0682908,0.356553909 C10.0682908,0.356553909 10.0682908,0.356553909 10.0682908,0.324139917 C10.0682908,0.291725925 10.0682908,0.259311934 10.1007692,0.259311934 C10.1007692,0.259311934 10.1332475,0.259311934 10.1332475,0.291725925 C10.1332475,0.291725925 10.1332475,0.291725925 10.1332475,0.291725925 C10.1657259,0.3889679 10.1657259,0.648279834 10.2306826,1.32897366 C10.4580311,3.889679 11.0426416,9.85385348 11.627252,11.3773111 C11.7246871,11.669037 11.7571654,11.9283489 11.6922087,12.1552469 Z M10.1982043,12.8683547 C10.3281177,12.9007687 10.9776848,12.9980107 11.4973386,12.4145588 C11.6922087,12.1876609 11.6922087,11.831107 11.5298169,11.4097251 C10.9452065,9.88626747 10.3930744,3.889679 10.1332475,1.32897366 C10.1007692,0.940005759 10.0682908,0.615865842 10.0358125,0.421381892 C9.84094233,0.648279834 9.02898339,1.23173168 5.1965372,2.98208724 C3.08544396,3.95450699 0.90939401,4.82968476 0.422218648,5.0565827 C2.04613652,5.54279258 9.80846397,12.4793868 10.1982043,12.8683547 Z"/>
            <path fill="#FFF" d="M10.1332475,12.0904189 L9.9383774,16.4338938 C9.9383774,16.4338938 11.4323818,16.3690658 11.4323818,16.0773399 C11.4323818,15.785614 12.0169923,15.8180279 12.6016027,15.720786 C13.1862131,15.59113 14.6802176,14.7159522 14.3879124,14.4242263 C14.1280855,14.1325004 10.7828147,11.863521 10.5879445,11.3448971 C10.4255528,10.8262732 10.1332475,12.0904189 10.1332475,12.0904189 Z"/>
          </g>
        </g>
        <g transform="translate(14.615 18.152)">
          <path fill="#F4C4B4" d="M3.99483797 9.17315965C3.99483797 9.17315965.876915653 9.23798763 0 7.58487406.552132078 5.31589464 2.27348503 7.64970204 3.99483797 9.17315965zM22.34511 4.08416295C22.34511 4.08416295 18.3177936 8.29798187 16.174222 13.3869786 15.8494385 14.5214683 5.45636406 10.7290313 3.99483797 9.17315965 3.70253276 9.7566115 9.45120204 16.4014798 15.5246549 19.0594271 16.2067004 19.351153 17.0186593 19.2539111 17.6032698 18.8325292 20.8186272 16.4663078 28.613433 9.82143948 29.1980434 5.80210451 29.5877837 3.24139917 22.34511 4.08416295 22.34511 4.08416295z"/>
          <path fill="#82BEE0" d="M19.259666,7.32556212 C19.259666,7.32556212 25.1057704,10.7614452 25.6903808,11.669037 C26.2425129,12.5766288 30.1399158,5.4455506 30.1723941,4.14899094 C30.2048725,2.85243127 27.4766905,-2.04208148 24.163898,1.29655967 C20.8511055,4.7000288 19.259666,7.32556212 19.259666,7.32556212 Z"/>
        </g>
      </g>
    </g>
    <path fill="#FFF" fill-opacity=".288" d="M10.1894531,118.618164 C10.3261726,118.481445 10.4560541,118.413086 10.5791016,118.413086 C10.7431649,118.413086 10.893554,118.536132 11.0302734,118.782227 C11.0712893,118.850586 11.1054686,119.117185 11.1328125,119.582031 C11.1464844,120.046877 11.1464844,120.634762 11.1328125,121.345703 C11.1328125,122.042972 11.1259766,122.719723 11.1123047,123.375977 C11.0986327,124.03223 11.084961,124.715817 11.0712891,125.426758 C11.0576171,126.137699 11.0507812,126.595702 11.0507812,126.800781 L12.5068359,126.800781 C14.6123152,126.814453 15.8222641,127.081052 16.1367188,127.600586 C16.1777346,127.668946 16.2050781,127.74414 16.21875,127.826172 C16.21875,127.921875 16.1845707,128.017578 16.1162109,128.113281 C16.0205073,128.277345 15.8085954,128.366211 15.4804688,128.379883 L15.4189453,128.379883 C15.0361309,128.379883 14.0039147,128.31836 12.3222656,128.195312 C10.777336,128.099609 9.94335999,127.990235 9.8203125,127.867188 C9.69726501,127.730468 9.63574219,127.443362 9.63574219,127.005859 C9.63574219,126.554685 9.70410088,125.146496 9.84082031,122.78125 C9.99121169,120.128893 10.1074215,118.741212 10.1894531,118.618164 Z M20.0126953,126.308594 C20.5185572,126.308594 20.9082018,126.212892 21.1816406,126.021484 C21.4550795,125.843749 21.639648,125.542971 21.7353516,125.119141 C21.7900393,124.914061 21.8173828,124.70215 21.8173828,124.483398 C21.8173828,124.264647 21.7900393,124.0459 21.7353516,123.827148 C21.625976,123.375974 21.4345717,123.054688 21.1611328,122.863281 C20.9150378,122.685546 20.6552748,122.59668 20.3818359,122.59668 C20.3134762,122.59668 20.2451175,122.603516 20.1767578,122.617188 C19.8076153,122.671875 19.513673,122.849608 19.2949219,123.150391 C18.8300758,123.765628 18.5976562,124.346677 18.5976562,124.893555 C18.5976562,125.016602 18.6044921,125.139648 18.6181641,125.262695 C18.6865238,125.64551 18.8232412,125.918944 19.0283203,126.083008 C19.2333995,126.233399 19.5615212,126.308594 20.0126953,126.308594 Z M19.0488281,121.755859 C19.3496109,121.523436 19.5957022,121.386719 19.7871094,121.345703 C19.8554691,121.332031 19.9511713,121.325195 20.0742188,121.325195 C20.2246101,121.325195 20.4091786,121.338867 20.6279297,121.366211 C21.5029341,121.475586 22.1796851,121.878903 22.6582031,122.576172 C23.0000017,123.082034 23.1708984,123.697262 23.1708984,124.421875 C23.1708984,124.531251 23.1640626,124.64746 23.1503906,124.770508 C23.0820309,125.659184 22.8085961,126.356443 22.3300781,126.862305 C21.9746076,127.231447 21.5029326,127.49121 20.9150391,127.641602 C20.6142563,127.709961 20.3134781,127.744141 20.0126953,127.744141 C19.7392564,127.744141 19.4726575,127.709961 19.2128906,127.641602 C18.392574,127.42285 17.8115251,126.94434 17.4697266,126.206055 C17.3056632,125.809568 17.2167969,125.399416 17.203125,124.975586 C17.203125,124.606443 17.2714837,124.223635 17.4082031,123.827148 C17.6953139,122.965816 18.2421835,122.275393 19.0488281,121.755859 Z M26.3701172,124.155273 C26.3701172,124.209961 26.5478498,124.667964 26.9033203,125.529297 C27.3681664,124.189446 27.8261696,123.170902 28.2773438,122.473633 C28.455079,122.17285 28.5986323,121.981446 28.7080078,121.899414 C28.8037114,121.831054 28.9130853,121.796875 29.0361328,121.796875 C29.0771486,121.796875 29.1249997,121.803711 29.1796875,121.817383 C29.3437508,121.844727 29.4667965,121.885742 29.5488281,121.94043 C29.6308598,121.995117 29.671875,122.09082 29.671875,122.227539 L29.671875,122.289062 C29.671875,122.453126 29.6240239,122.665038 29.5283203,122.924805 C29.4326167,123.1709 29.2890635,123.505857 29.0976562,123.929688 C28.4687469,125.337898 28.0927741,126.199217 27.9697266,126.513672 C27.6962877,127.183597 27.4365247,127.593749 27.1904297,127.744141 C27.108398,127.798828 27.0332035,127.826172 26.9648438,127.826172 C26.7871085,127.826172 26.6093759,127.709962 26.4316406,127.477539 C26.1582018,127.149412 25.8574235,126.547856 25.5292969,125.672852 C25.0781227,124.497064 24.7841804,123.642581 24.6474609,123.109375 C24.5927732,122.849608 24.5654297,122.63086 24.5654297,122.453125 C24.5654297,122.261718 24.599609,122.125 24.6679688,122.042969 C24.8183601,121.892577 24.9550775,121.83789 25.078125,121.878906 C25.1601567,121.90625 25.3994121,122.261715 25.7958984,122.945312 C26.1787129,123.62891 26.3701172,124.032226 26.3701172,124.155273 Z M34.4912109,123.109375 C34.4912109,122.904296 34.2861349,122.801758 33.8759766,122.801758 C33.4658183,122.801758 33.1240248,122.904296 32.8505859,123.109375 C32.6591787,123.259766 32.5292972,123.40332 32.4609375,123.540039 C32.4199217,123.594727 32.3994141,123.649414 32.3994141,123.704102 C32.3994141,123.758789 32.4199217,123.80664 32.4609375,123.847656 C32.5292972,123.916016 32.6591787,123.950195 32.8505859,123.950195 C33.1650406,123.950195 33.51367,123.847657 33.8964844,123.642578 C34.2929707,123.437499 34.4912109,123.259766 34.4912109,123.109375 Z M32.2558594,121.919922 C32.6386738,121.687499 33.1103488,121.571289 33.6708984,121.571289 C33.8759776,121.571289 34.0878895,121.584961 34.3066406,121.612305 C35.1679731,121.735352 35.6738274,121.981443 35.8242188,122.350586 C35.8789065,122.514649 35.90625,122.671874 35.90625,122.822266 C35.90625,123.246096 35.7080098,123.66992 35.3115234,124.09375 C34.6552702,124.832035 33.8076224,125.166993 32.7685547,125.098633 C32.3720683,125.084961 32.1396488,125.098633 32.0712891,125.139648 C32.0029293,125.180664 31.9824217,125.296874 32.0097656,125.488281 C32.0507815,125.83008 32.2011706,126.069335 32.4609375,126.206055 C32.7070325,126.342774 33.1992151,126.43164 33.9375,126.472656 C34.894536,126.541016 35.3730469,126.670897 35.3730469,126.862305 C35.3730469,126.985352 35.2500012,127.169921 35.0039062,127.416016 C34.7851552,127.621095 34.5937508,127.74414 34.4296875,127.785156 C34.3613278,127.798828 34.2519539,127.805664 34.1015625,127.805664 C33.9101553,127.805664 33.6708999,127.791992 33.3837891,127.764648 C31.6064364,127.641601 30.7177734,126.787117 30.7177734,125.201172 C30.7177734,125.037109 30.7314452,124.859376 30.7587891,124.667969 C30.8271488,124.121091 31.0048814,123.581057 31.2919922,123.047852 C31.579103,122.514646 31.9003888,122.138673 32.2558594,121.919922 Z M45.5654297,123.458008 C45.1142556,123.458008 44.7724621,123.574218 44.5400391,123.806641 C44.2939441,124.052736 44.0957039,124.490231 43.9453125,125.119141 C43.8085931,125.693362 43.8291007,126.117186 44.0068359,126.390625 C44.1982431,126.664064 44.519529,126.875976 44.9707031,127.026367 C45.4082053,127.163087 45.7773422,127.163087 46.078125,127.026367 C46.6523466,126.7666 47.0693346,126.759764 47.3291016,127.005859 C47.5205088,127.156251 47.5273446,127.361327 47.3496094,127.621094 C47.2128899,127.839845 46.9531269,128.065429 46.5703125,128.297852 C46.20117,128.530275 45.9072277,128.646484 45.6884766,128.646484 C45.4013658,128.646484 44.9638701,128.530275 44.3759766,128.297852 C43.1044858,127.819334 42.46875,126.999029 42.46875,125.836914 C42.46875,125.4541 42.5371087,125.037112 42.6738281,124.585938 C43.0429706,123.328119 43.5830043,122.569337 44.2939453,122.30957 C44.5263683,122.227539 44.8476542,122.186523 45.2578125,122.186523 C45.4355478,122.186523 45.6269521,122.193359 45.8320312,122.207031 C46.5156284,122.261719 46.9873034,122.364257 47.2470703,122.514648 C47.4794933,122.66504 47.6298825,122.856444 47.6982422,123.088867 C47.7119141,123.170899 47.71875,123.246093 47.71875,123.314453 C47.71875,123.464845 47.6777348,123.601562 47.5957031,123.724609 C47.4863276,123.847657 47.3974613,123.90918 47.3291016,123.90918 C47.2470699,123.90918 47.0898449,123.847657 46.8574219,123.724609 C46.4882794,123.546874 46.0576196,123.458008 45.5654297,123.458008 Z M53.1328125,126.472656 C53.1328125,126.117186 53.0781255,125.816407 52.96875,125.570312 C52.8593745,125.283202 52.6953136,125.139648 52.4765625,125.139648 C52.2304675,125.139648 51.9160175,125.310545 51.5332031,125.652344 C51.3007801,125.871095 51.1435551,126.048827 51.0615234,126.185547 C51.0068357,126.294922 50.9794922,126.43164 50.9794922,126.595703 L50.9794922,126.677734 C51.0068361,127.060549 51.1298817,127.299804 51.3486328,127.395508 C51.4169925,127.422852 51.499023,127.436523 51.5947266,127.436523 C51.7861338,127.436523 52.0390609,127.375001 52.3535156,127.251953 C52.6816423,127.128906 52.8935542,127.019532 52.9892578,126.923828 C53.0849614,126.828125 53.1328125,126.677735 53.1328125,126.472656 Z M53.7480469,128.236328 C53.6660152,128.31836 53.365237,128.43457 52.8457031,128.584961 C52.3261693,128.749024 51.922853,128.831055 51.6357422,128.831055 C51.0478486,128.831055 50.5625019,128.625979 50.1796875,128.21582 C49.7968731,127.819334 49.6054688,127.320316 49.6054688,126.71875 C49.6054688,126.048825 49.8857394,125.419925 50.4462891,124.832031 C51.0205107,124.244138 51.6357389,123.950195 52.2919922,123.950195 C52.4833994,123.950195 52.6132809,123.936524 52.6816406,123.90918 C52.7500003,123.881836 52.7705079,123.827149 52.7431641,123.745117 C52.7158202,123.663086 52.6406256,123.519532 52.5175781,123.314453 C52.3398429,123.068358 52.0937516,122.945312 51.7792969,122.945312 C51.4785141,122.958984 51.1982435,123.095702 50.9384766,123.355469 C50.5146463,123.833987 50.2070322,123.916017 50.015625,123.601562 C49.9199214,123.451171 49.9130855,123.252931 49.9951172,123.006836 C50.0634769,122.760741 50.2207019,122.51465 50.4667969,122.268555 C50.671876,122.063476 50.9042956,121.933594 51.1640625,121.878906 C51.3417978,121.83789 51.5537097,121.817383 51.7998047,121.817383 L52.1484375,121.817383 C52.8593786,121.885743 53.3857405,122.172849 53.7275391,122.678711 C54.0556657,123.170901 54.3085929,123.95019 54.4863281,125.016602 C54.5957037,125.590823 54.6503906,126.048826 54.6503906,126.390625 C54.6503906,126.431641 54.6435548,126.472656 54.6298828,126.513672 C54.6162109,126.85547 54.5136728,127.190428 54.3222656,127.518555 C54.1582023,127.833009 53.966798,128.072265 53.7480469,128.236328 Z M56.1269531,119.233398 C56.2363287,119.041991 56.3662102,118.946289 56.5166016,118.946289 C56.6806649,118.946289 56.8378899,119.035155 56.9882812,119.212891 C57.1386726,119.376954 57.2207031,120.539052 57.234375,122.699219 C57.2480469,123.90235 57.2753904,124.756833 57.3164062,125.262695 C57.3437501,125.768557 57.405273,126.130858 57.5009766,126.349609 C57.6240241,126.56836 57.8154284,126.725585 58.0751953,126.821289 C58.2939464,126.903321 58.4306638,127.067382 58.4853516,127.313477 C58.4990235,127.368164 58.5058594,127.416015 58.5058594,127.457031 C58.5058594,127.648438 58.4306648,127.812499 58.2802734,127.949219 C58.1298821,128.113282 57.9521495,128.195312 57.7470703,128.195312 C57.5419912,128.195312 57.3095716,128.120118 57.0498047,127.969727 C56.5302708,127.655272 56.1679698,127.176761 55.9628906,126.53418 C55.880859,126.260741 55.8398438,125.529303 55.8398438,124.339844 L55.8398438,122.801758 C55.8945315,120.696279 55.9902337,119.506837 56.1269531,119.233398 Z M62.2177734,123.458008 C61.7665993,123.458008 61.4248058,123.574218 61.1923828,123.806641 C60.9462878,124.052736 60.7480476,124.490231 60.5976562,125.119141 C60.4609368,125.693362 60.4814444,126.117186 60.6591797,126.390625 C60.8505869,126.664064 61.1718727,126.875976 61.6230469,127.026367 C62.0605491,127.163087 62.429686,127.163087 62.7304687,127.026367 C63.3046904,126.7666 63.7216784,126.759764 63.9814453,127.005859 C64.1728525,127.156251 64.1796884,127.361327 64.0019531,127.621094 C63.8652337,127.839845 63.6054707,128.065429 63.2226562,128.297852 C62.8535138,128.530275 62.5595714,128.646484 62.3408203,128.646484 C62.0537095,128.646484 61.6162139,128.530275 61.0283203,128.297852 C59.7568296,127.819334 59.1210937,126.999029 59.1210937,125.836914 C59.1210937,125.4541 59.1894524,125.037112 59.3261719,124.585938 C59.6953143,123.328119 60.235348,122.569337 60.9462891,122.30957 C61.1787121,122.227539 61.4999979,122.186523 61.9101562,122.186523 C62.0878915,122.186523 62.2792958,122.193359 62.484375,122.207031 C63.1679722,122.261719 63.6396471,122.364257 63.8994141,122.514648 C64.1318371,122.66504 64.2822262,122.856444 64.3505859,123.088867 C64.3642579,123.170899 64.3710938,123.246093 64.3710938,123.314453 C64.3710938,123.464845 64.3300785,123.601562 64.2480469,123.724609 C64.1386713,123.847657 64.049805,123.90918 63.9814453,123.90918 C63.8994137,123.90918 63.7421887,123.847657 63.5097656,123.724609 C63.1406232,123.546874 62.7099634,123.458008 62.2177734,123.458008 Z M66.2578125,124.155273 C66.2578125,123.348629 66.285156,122.781252 66.3398438,122.453125 C66.4082035,122.13867 66.5244132,121.947266 66.6884766,121.878906 C66.8115241,121.83789 66.920898,121.83789 67.0166016,121.878906 C67.0986332,121.933594 67.1669919,122.042968 67.2216797,122.207031 C67.2900394,122.371095 67.3447264,122.596678 67.3857422,122.883789 C67.4130861,123.1709 67.4404296,123.540037 67.4677734,123.991211 C67.577149,126.260754 67.93945,127.395508 68.5546875,127.395508 C68.7050789,127.395508 68.8691397,127.340821 69.046875,127.231445 C69.3203139,127.067382 69.573241,126.800783 69.8056641,126.431641 C69.9560554,126.199218 70.0449217,125.925783 70.0722656,125.611328 C70.0996095,125.310545 70.0996095,124.715825 70.0722656,123.827148 C70.0312498,122.459954 70.0654291,121.714844 70.1748047,121.591797 C70.2841802,121.496093 70.3935541,121.448242 70.5029297,121.448242 C70.666993,121.448242 70.8447256,121.557616 71.0361328,121.776367 C71.2685558,122.022462 71.4052732,122.747064 71.4462891,123.950195 C71.459961,124.19629 71.4667969,124.42871 71.4667969,124.647461 C71.4667969,125.495121 71.3847664,126.124021 71.2207031,126.53418 C70.9199204,127.31348 70.4619171,127.908201 69.8466797,128.318359 C69.4365214,128.578126 69.0195334,128.708008 68.5957031,128.708008 C68.4042959,128.708008 68.2060557,128.673828 68.0009766,128.605469 C67.3994111,128.414062 66.9550796,127.962894 66.6679688,127.251953 C66.3945299,126.541012 66.2578125,125.508796 66.2578125,124.155273 Z M72.984375,119.233398 C73.0937505,119.041991 73.2236321,118.946289 73.3740234,118.946289 C73.5380868,118.946289 73.6953117,119.035155 73.8457031,119.212891 C73.9960945,119.376954 74.0781249,120.539052 74.0917969,122.699219 C74.1054688,123.90235 74.1328123,124.756833 74.1738281,125.262695 C74.201172,125.768557 74.2626948,126.130858 74.3583984,126.349609 C74.4814459,126.56836 74.6728503,126.725585 74.9326172,126.821289 C75.1513683,126.903321 75.2880857,127.067382 75.3427734,127.313477 C75.3564454,127.368164 75.3632812,127.416015 75.3632812,127.457031 C75.3632812,127.648438 75.2880867,127.812499 75.1376953,127.949219 C74.9873039,128.113282 74.8095713,128.195312 74.6044922,128.195312 C74.399413,128.195312 74.1669935,128.120118 73.9072266,127.969727 C73.3876927,127.655272 73.0253917,127.176761 72.8203125,126.53418 C72.7382808,126.260741 72.6972656,125.529303 72.6972656,124.339844 L72.6972656,122.801758 C72.7519534,120.696279 72.8476556,119.506837 72.984375,119.233398 Z M80.1621094,126.472656 C80.1621094,126.117186 80.1074224,125.816407 79.9980469,125.570312 C79.8886713,125.283202 79.7246105,125.139648 79.5058594,125.139648 C79.2597644,125.139648 78.9453144,125.310545 78.5625,125.652344 C78.330077,125.871095 78.172852,126.048827 78.0908203,126.185547 C78.0361325,126.294922 78.0087891,126.43164 78.0087891,126.595703 L78.0087891,126.677734 C78.0361329,127.060549 78.1591786,127.299804 78.3779297,127.395508 C78.4462894,127.422852 78.5283198,127.436523 78.6240234,127.436523 C78.8154306,127.436523 79.0683578,127.375001 79.3828125,127.251953 C79.7109391,127.128906 79.9228511,127.019532 80.0185547,126.923828 C80.1142583,126.828125 80.1621094,126.677735 80.1621094,126.472656 Z M80.7773438,128.236328 C80.6953121,128.31836 80.3945338,128.43457 79.875,128.584961 C79.3554662,128.749024 78.9521499,128.831055 78.6650391,128.831055 C78.0771455,128.831055 77.5917988,128.625979 77.2089844,128.21582 C76.82617,127.819334 76.6347656,127.320316 76.6347656,126.71875 C76.6347656,126.048825 76.9150363,125.419925 77.4755859,124.832031 C78.0498076,124.244138 78.6650358,123.950195 79.3212891,123.950195 C79.5126963,123.950195 79.6425778,123.936524 79.7109375,123.90918 C79.7792972,123.881836 79.7998048,123.827149 79.7724609,123.745117 C79.7451171,123.663086 79.6699225,123.519532 79.546875,123.314453 C79.3691397,123.068358 79.1230484,122.945312 78.8085938,122.945312 C78.507811,122.958984 78.2275404,123.095702 77.9677734,123.355469 C77.5439432,123.833987 77.2363291,123.916017 77.0449219,123.601562 C76.9492183,123.451171 76.9423824,123.252931 77.0244141,123.006836 C77.0927738,122.760741 77.2499988,122.51465 77.4960938,122.268555 C77.7011729,122.063476 77.9335925,121.933594 78.1933594,121.878906 C78.3710946,121.83789 78.5830066,121.817383 78.8291016,121.817383 L79.1777344,121.817383 C79.8886754,121.885743 80.4150374,122.172849 80.7568359,122.678711 C81.0849626,123.170901 81.3378897,123.95019 81.515625,125.016602 C81.6250005,125.590823 81.6796875,126.048826 81.6796875,126.390625 C81.6796875,126.431641 81.6728516,126.472656 81.6591797,126.513672 C81.6455077,126.85547 81.5429697,127.190428 81.3515625,127.518555 C81.1874992,127.833009 80.9960948,128.072265 80.7773438,128.236328 Z M83.484375,120.238281 C83.6074225,120.142578 83.7099605,120.094727 83.7919922,120.094727 C84.2431663,120.094727 84.3457044,121.092763 84.0996094,123.088867 C84.2089849,123.102539 84.3867175,123.116211 84.6328125,123.129883 C84.8789075,123.129883 85.111327,123.136719 85.3300781,123.150391 C85.5351573,123.164063 85.7470692,123.18457 85.9658203,123.211914 C86.1845714,123.225586 86.3554681,123.259765 86.4785156,123.314453 C86.6152351,123.355469 86.6904296,123.416992 86.7041016,123.499023 C86.7724613,123.581055 86.8066406,123.663086 86.8066406,123.745117 C86.8066406,123.868165 86.7314461,123.977539 86.5810547,124.073242 C86.3486317,124.223634 85.9316436,124.333007 85.3300781,124.401367 C85.0839831,124.415039 84.7216821,124.449218 84.2431641,124.503906 C84.3251957,125.173831 84.4892566,125.78906 84.7353516,126.349609 C84.8447271,126.56836 84.954101,126.698242 85.0634766,126.739258 C85.1865241,126.780274 85.4462871,126.78711 85.8427734,126.759766 C86.0888684,126.746094 86.2734369,126.746094 86.3964844,126.759766 C86.5332038,126.759766 86.6220701,126.780273 86.6630859,126.821289 C86.7177737,126.862305 86.7519531,126.930664 86.765625,127.026367 C86.8066408,127.245118 86.6972669,127.477538 86.4375,127.723633 C86.1777331,127.9834 85.8906266,128.147461 85.5761719,128.21582 C85.4257805,128.243164 85.2822272,128.256836 85.1455078,128.256836 C84.7080056,128.256836 84.3320328,128.113283 84.0175781,127.826172 C83.5937479,127.457029 83.2656262,126.807622 83.0332031,125.87793 C82.8691398,125.235348 82.7871094,124.497074 82.7871094,123.663086 C82.7871094,123.307615 82.8007811,122.931643 82.828125,122.535156 C82.9375005,121.236322 83.1562484,120.470704 83.484375,120.238281 Z M90.703125,126.308594 C91.2089869,126.308594 91.5986314,126.212892 91.8720703,126.021484 C92.1455092,125.843749 92.3300776,125.542971 92.4257812,125.119141 C92.480469,124.914061 92.5078125,124.70215 92.5078125,124.483398 C92.5078125,124.264647 92.480469,124.0459 92.4257812,123.827148 C92.3164057,123.375974 92.1250014,123.054688 91.8515625,122.863281 C91.6054675,122.685546 91.3457045,122.59668 91.0722656,122.59668 C91.0039059,122.59668 90.9355472,122.603516 90.8671875,122.617188 C90.498045,122.671875 90.2041027,122.849608 89.9853516,123.150391 C89.5205055,123.765628 89.2880859,124.346677 89.2880859,124.893555 C89.2880859,125.016602 89.2949218,125.139648 89.3085938,125.262695 C89.3769535,125.64551 89.5136708,125.918944 89.71875,126.083008 C89.9238292,126.233399 90.2519509,126.308594 90.703125,126.308594 Z M89.7392578,121.755859 C90.0400406,121.523436 90.2861319,121.386719 90.4775391,121.345703 C90.5458988,121.332031 90.6416009,121.325195 90.7646484,121.325195 C90.9150398,121.325195 91.0996083,121.338867 91.3183594,121.366211 C92.1933638,121.475586 92.8701148,121.878903 93.3486328,122.576172 C93.6904314,123.082034 93.8613281,123.697262 93.8613281,124.421875 C93.8613281,124.531251 93.8544923,124.64746 93.8408203,124.770508 C93.7724606,125.659184 93.4990258,126.356443 93.0205078,126.862305 C92.6650373,127.231447 92.1933623,127.49121 91.6054688,127.641602 C91.304686,127.709961 91.0039078,127.744141 90.703125,127.744141 C90.4296861,127.744141 90.1630872,127.709961 89.9033203,127.641602 C89.0830037,127.42285 88.5019548,126.94434 88.1601562,126.206055 C87.9960929,125.809568 87.9072266,125.399416 87.8935547,124.975586 C87.8935547,124.606443 87.9619134,124.223635 88.0986328,123.827148 C88.3857436,122.965816 88.9326132,122.275393 89.7392578,121.755859 Z M100.362305,122.822266 C100.362305,123.259768 99.9248091,123.334962 99.0498047,123.047852 C98.2158161,122.774413 97.6210955,122.870115 97.265625,123.334961 C96.9238264,123.813479 96.7666014,124.763665 96.7939453,126.185547 C96.8212892,127.375006 96.780274,128.003906 96.6708984,128.072266 C96.6025387,128.113281 96.5136724,128.133789 96.4042969,128.133789 C96.3085933,128.133789 96.1992194,128.113281 96.0761719,128.072266 C95.816405,128.003906 95.65918,127.894532 95.6044922,127.744141 C95.5361325,127.552733 95.4677738,126.58204 95.3994141,124.832031 C95.3583982,123.943355 95.3378906,123.293947 95.3378906,122.883789 L95.3378906,122.535156 C95.3652345,122.234373 95.4404291,122.056641 95.5634766,122.001953 C95.7412118,121.933593 95.939452,121.98828 96.1582031,122.166016 C96.3496103,122.330079 96.4931636,122.364258 96.5888672,122.268555 C96.6982427,122.159179 96.9238264,122.029298 97.265625,121.878906 C97.5800797,121.714843 97.9150373,121.632812 98.2705078,121.632812 C98.5576186,121.632812 98.8652327,121.687499 99.1933594,121.796875 C99.9726601,122.056642 100.362305,122.398435 100.362305,122.822266 Z"/>
  </g>
</svg>
